<svg width="40" height="40" xmlns="http://www.w3.org/2000/svg"><path d="M20 0a20 20 0 110 40 20 20 0 010-40zm3.26 21.33c-.15-.13-.23-.13-.38 0-.44.4-.9.77-1.34 1.15-1.06.9-2.52.9-3.56-.01-.44-.4-.9-.76-1.34-1.15-.13-.11-.2-.12-.33 0l-6.5 5.98c-.05.05-.14.08-.12.2h20.15c-.01-.12-.09-.15-.14-.2l-1.94-1.8-4.5-4.17zm8.18-7.27c-.08-.03-.14.07-.2.12-2.2 1.9-4.41 3.79-6.63 5.67-.19.16-.17.24 0 .39l4.3 3.97 2.27 2.1c.14.13.2.12.26-.07.05-.19.05-.38.05-.58V14.3c0-.08.04-.19-.05-.23zm-23.32 0l-.04.02c-.13.07-.06.32-.06.5V25.4c0 .23.01.47.04.7 0 .1 0 .26.13.3.09.02.16-.1.23-.17l6.53-6c.15-.14.17-.22 0-.36l-6.47-5.52c-.13-.1-.27-.34-.4-.27l.04-.01zm11.64-1.56h-9.9c-.17 0-.34 0-.51.05-.06.02-.15.02-.16.1-.01.05.06.08.1.12l.92.78 8.84 7.56c.56.48.9.47 1.46-.01l9.04-7.74.82-.72c-.24-.15-.48-.14-.72-.14H9.86h9.9z" /></svg>