<svg width="46" height="46" xmlns="http://www.w3.org/2000/svg"><path d="M22.67 22.16c3.05 0 5.68-1.1 7.84-3.25a10.72 10.72 0 003.24-7.83c0-3.04-1.09-5.68-3.24-7.83A10.72 10.72 0 0022.67 0C19.63 0 17 1.1 14.84 3.25a10.72 10.72 0 00-3.25 7.83c0 3.04 1.1 5.68 3.25 7.83a10.72 10.72 0 007.83 3.25zm-5.92-17a8 8 0 015.92-2.46c2.34 0 4.28.8 5.93 2.45a8.01 8.01 0 012.46 5.93c0 2.33-.8 4.27-2.46 5.93a8 8 0 01-5.93 2.45c-2.33 0-4.27-.8-5.92-2.45a8 8 0 01-2.46-5.93 8 8 0 012.46-5.93zM42.06 35.37a27.37 27.37 0 00-1.09-5.83c-.3-.93-.7-1.84-1.2-2.72-.52-.92-1.13-1.71-1.81-2.36a7.99 7.99 0 00-2.6-1.64 9 9 0 00-3.33-.6c-.47 0-.92.2-1.8.76l-1.87 1.21c-.6.39-1.42.75-2.43 1.07a9.64 9.64 0 01-5.94 0c-1-.32-1.82-.68-2.42-1.07L15.69 23c-.88-.58-1.33-.77-1.8-.77-1.2 0-2.31.2-3.32.6-1.01.4-1.89.95-2.6 1.64-.69.65-1.3 1.45-1.82 2.36-.5.88-.9 1.8-1.2 2.72a27.18 27.18 0 00-1.09 5.83c-.06.88-.09 1.8-.09 2.72 0 2.4.77 4.34 2.27 5.78A8.17 8.17 0 0011.9 46h22.15c2.39 0 4.36-.72 5.84-2.13 1.5-1.43 2.27-3.38 2.27-5.78 0-.93-.03-1.84-.1-2.72zm-4.04 6.54a5.5 5.5 0 01-3.98 1.4H11.89c-1.7 0-3-.46-3.99-1.4-.96-.91-1.43-2.16-1.43-3.82a24.52 24.52 0 011.05-7.72c.24-.76.57-1.5.98-2.22.39-.69.83-1.27 1.33-1.75a5.3 5.3 0 011.73-1.07 6.2 6.2 0 012.12-.41c.1.05.27.14.54.32l1.9 1.23c.8.5 1.82.96 3.04 1.36a12.34 12.34 0 007.6 0c1.23-.4 2.25-.86 3.05-1.36a241.58 241.58 0 002.43-1.55 6.2 6.2 0 012.12.4 5.3 5.3 0 011.73 1.08c.5.48.95 1.06 1.34 1.75.4.72.73 1.46.97 2.21a24.72 24.72 0 01.97 5.2c.06.81.09 1.66.09 2.53 0 1.66-.47 2.9-1.44 3.82z" /></svg>