<svg width="41" height="40" xmlns="http://www.w3.org/2000/svg"><path d="M20.62 0a20 20 0 110 40 20 20 0 010-40zm9.74 10.73c-.2.03-.45.03-.67.1l-.8.3-.78.33c-.29.11-.57.24-.85.36l-1.64.65-.88.37-1.6.66-.85.36-1.26.5-.89.37-1.32.53c-.27.1-.54.24-.82.35l-1.77.71-.74.3-1.71.68-.91.37-1.25.5c-.29.13-.57.25-.86.36l-1.6.64-.99.4c-.48.2-.96.38-1.36.72-.17.15-.33.33-.35.57a.8.8 0 00.45.74c.3.12.6.21.9.3.76.25 1.53.5 2.3.73.53.17 1.07.3 1.61.45.5.13 1 .15 1.5.06.42-.07.8-.22 1.15-.46.55-.37 1.12-.72 1.68-1.09l1.66-1.1 1.4-.93 1.47-.98 1.13-.76c.61-.42 1.23-.84 1.85-1.23.45-.29.9-.58 1.44-.7.15-.04.3-.05.36.06.06.1.07.29.01.39-.15.28-.32.57-.54.8-.5.53-1.02 1.02-1.54 1.52l-1.96 1.84-2.64 2.45c-.36.33-.73.65-1.05 1.02a.94.94 0 00-.13 1.07c.13.27.32.47.54.64.51.4 1.03.77 1.55 1.15l.83.59 1.5.98 1.44.94c.4.26.8.54 1.22.8.37.23.74.45 1.14.64.32.15.67.23 1.01.34.43.15.85.14 1.23-.07.47-.26.71-.7.83-1.18.12-.46.17-.94.24-1.41l.1-.7.27-1.59.09-.59.2-1.15c.06-.41.1-.82.17-1.22l.36-2.13.1-.68.26-1.57c.07-.39.11-.79.17-1.18l.29-1.79.16-1.07.28-1.86c.04-.28.05-.56.1-.83.04-.33-.03-.64-.2-.91-.22-.37-.6-.44-1.03-.46z" /></svg>