<svg width="312" height="66" xmlns="http://www.w3.org/2000/svg" xmlns:xlink="http://www.w3.org/1999/xlink"><defs><path id="a" d="M5.56 6.27V.21H.34v6.06h5.22z"/><path id="c" d="M5.63 8.97H.1V.38h5.53v8.6z"/></defs><g fill="none" fill-rule="evenodd"><path d="M152.57 2.91v-.49l-.02-.5a4.8 4.8 0 00-.06-.45.85.85 0 00-.1-.3.68.68 0 00-.33-.22 6.75 6.75 0 00-.57-.16V.48a38.18 38.18 0 001.64.07h.53l.83-.01 1-.03 1.07-.02 1.06-.01c-.08.36-.14.7-.19 1.05a27.77 27.77 0 01-.12.78h-.3a2.52 2.52 0 01-.05-.25 2.2 2.2 0 00-.15-.59.57.57 0 00-.14-.2 1 1 0 00-.57-.18l-.73-.03h-.3a3.66 3.66 0 00-.29.01l-.38.03-.6.06a2 2 0 00-.05.28 12.71 12.71 0 00-.06.98v4.56a7.54 7.54 0 00.07.95.85.85 0 00.1.3.39.39 0 00.16.13 3.4 3.4 0 00.63.18l.35.08v.3a19.16 19.16 0 00-.4-.02l-.5-.02-.51-.02a17.42 17.42 0 00-1.32.02 31 31 0 00-.78.05v-.31l.57-.17a.66.66 0 00.34-.22.85.85 0 00.1-.3 5.05 5.05 0 00.07-.95V2.91zm5.72 2.8c0-.44.1-.84.28-1.2.19-.36.44-.66.75-.91a3.74 3.74 0 013.66-.52 2.67 2.67 0 011.5 1.69c.12.37.18.75.18 1.14 0 .44-.09.85-.28 1.23a3.11 3.11 0 01-.74.97c-.31.27-.67.49-1.06.64a3.43 3.43 0 01-1.22.22c-.54 0-1-.1-1.4-.3a2.8 2.8 0 01-.94-.75 3.18 3.18 0 01-.55-1.04 3.95 3.95 0 01-.18-1.17m3.19-2.38c-.72 0-1.24.2-1.57.6-.33.4-.5.95-.5 1.67 0 .35.04.7.1 1.05.07.34.19.65.35.91a1.81 1.81 0 001.62.9c.35 0 .66-.06.92-.18s.47-.29.65-.5c.17-.22.3-.48.37-.78.08-.3.12-.62.12-.98a4.69 4.69 0 00-.1-1.02 2.63 2.63 0 00-.35-.86 1.74 1.74 0 00-.64-.6 1.98 1.98 0 00-.97-.21m9.74 5.28l-.54.14a8.54 8.54 0 01-.96.2 3.99 3.99 0 01-.49.02 4.4 4.4 0 01-1.4-.2 3.06 3.06 0 01-1.07-.6 2.8 2.8 0 01-.7-.96 3.02 3.02 0 01-.25-1.26c0-.49.08-.93.25-1.32a2.72 2.72 0 01.7-.99c.3-.26.67-.47 1.08-.6a4.26 4.26 0 012.47-.09l.5.11c.15.04.33.07.52.09a8.22 8.22 0 00-.11.63l-.08.75h-.28a4.46 4.46 0 00-.24-.59.98.98 0 00-.27-.36c-.25-.2-.65-.29-1.19-.29-.35 0-.66.06-.94.19a2 2 0 00-.7.51 2.2 2.2 0 00-.44.79 3.8 3.8 0 000 2.05c.09.33.23.62.43.87.2.24.44.44.74.58.3.14.65.21 1.05.21.25 0 .48-.02.69-.08a1.58 1.58 0 00.55-.26c.12-.09.23-.23.34-.43a4.84 4.84 0 00.3-.59h.28a20.83 20.83 0 01-.11.61l-.06.38-.07.5m3.02-5.07c0 .1.05.23.16.42l.49.87 1.01 1.8h.05l1.02-2.17.26-.56a.93.93 0 00.08-.36c0-.04-.03-.09-.08-.13a.6.6 0 00-.2-.1 3.72 3.72 0 00-.58-.15V2.9a17.48 17.48 0 001.28.04 10.19 10.19 0 001-.04v.28a2.28 2.28 0 00-.55.22c-.11.06-.22.2-.33.43l-.45.93-1.3 2.7a7.9 7.9 0 01-.45.83c-.13.2-.25.35-.37.45a.83.83 0 01-.36.2 1.77 1.77 0 01-.4.04c-.28 0-.55-.05-.81-.15 0-.33-.01-.62-.03-.87a13.55 13.55 0 00-.05-.6h.31l.19.42.18.32a.51.51 0 00.21.2c.07.02.14.04.22.04a.56.56 0 00.36-.13c.1-.08.2-.24.31-.47l-1.7-2.86a78.68 78.68 0 00-.59-.96c-.17-.28-.33-.46-.46-.52a7.6 7.6 0 00-.33-.13 2.64 2.64 0 00-.3-.09V2.9c.19.01.4.03.66.03a24.07 24.07 0 001.46 0c.25 0 .48-.02.69-.03v.28a10.11 10.11 0 01-.18.06 1.3 1.3 0 00-.2.07.6.6 0 00-.15.1.2.2 0 00-.07.15m6.78 5.3c-.16 0-.34.01-.55.04a1.1 1.1 0 00-.54.2 1 1 0 00-.2.23 3.12 3.12 0 00-.22.36 12.46 12.46 0 00-.35.75h-.31a12.08 12.08 0 00.07-1.1l.02-.57.01-.44a5.5 5.5 0 00.75.06h.16a2.95 2.95 0 00.34-.51c.12-.21.22-.47.3-.78a14.46 14.46 0 00.46-2.35l.04-.4.02-.36a.92.92 0 00-.12-.46c-.06-.1-.18-.17-.35-.22a5.68 5.68 0 00-.53-.13v-.3l.68.04c.24.02.49.03.76.03h2.48c.27 0 .55-.01.82-.03l.74-.05v.31l-.54.14c-.14.04-.23.1-.27.2a1.49 1.49 0 00-.12.52 8.5 8.5 0 00-.02.67V7.1c0 .24 0 .46.02.68.02.22.04.37.08.46.01.05.07.09.19.11a2.17 2.17 0 00.73.01l.32-.05a6.69 6.69 0 00-.08.41l-.09.56-.08.6-.08.56h-.3l-.24-.8c-.1-.28-.2-.48-.33-.59-.08-.07-.24-.12-.48-.15a7.97 7.97 0 00-.89-.04h-2.3zm2.53-4.15c0-.23 0-.46-.02-.69a3.19 3.19 0 00-.06-.56 6.41 6.41 0 00-.7-.04h-.28a6.22 6.22 0 00-.46.02c-.15.01-.26.06-.32.15a.85.85 0 00-.14.33 8.9 8.9 0 00-.09.55 18.02 18.02 0 00-.08.62 9.4 9.4 0 00-.05.3l-.06.37a20.32 20.32 0 01-.17.91 6.5 6.5 0 01-.22.78 5.26 5.26 0 01-.4.93h3a3.66 3.66 0 00.04-.56V4.7zm6.5 2.37a4.07 4.07 0 00-.38-.02h-1.19l-.42.02-.24.64a4.25 4.25 0 00-.1.27.92.92 0 00-.04.28c0 .05.02.1.07.14a.73.73 0 00.2.1 2 2 0 00.26.07l.3.07v.26a18.56 18.56 0 00-.57-.05 10.77 10.77 0 00-.8-.02 5.77 5.77 0 00-.6.02 13.99 13.99 0 00-.42.05v-.26a2.35 2.35 0 00.34-.07l.3-.12a.68.68 0 00.3-.37l.21-.5 1.84-4.76h.28l1.97 4.83.18.4c.06.12.12.22.18.3a.66.66 0 00.27.17c.12.05.25.09.39.12v.26a1.98 1.98 0 00-.22-.02h-.33l-.35-.02a8.87 8.87 0 00-.3 0h-.94a7.17 7.17 0 00-.57.04v-.26a3.63 3.63 0 00.53-.14.67.67 0 00.19-.1.17.17 0 00.08-.14.76.76 0 00-.07-.3 8.35 8.35 0 01-.1-.24l-.25-.65zm-.78-.5h.34c.06 0 .14 0 .22-.02l-.78-2H189l-.74 2c.09.02.18.02.28.02h.74zm5.51.52c0 .24.01.46.03.67.01.21.05.38.12.52.04.1.15.16.34.2l.7.13v.29a28.84 28.84 0 00-2.46-.04l-.68.04v-.29l.54-.13c.14-.04.23-.1.27-.2a1.49 1.49 0 00.12-.52 8.88 8.88 0 00.02-.67V4.7c0-.24 0-.46-.02-.67a1.49 1.49 0 00-.12-.52c-.04-.1-.13-.16-.27-.2l-.54-.14V2.9a17.57 17.57 0 001.29.05 10.34 10.34 0 00.74-.05l.38-.03.3-.02c.78 0 1.37.17 1.77.5.4.35.6.8.6 1.37 0 .27-.05.51-.16.74a1.8 1.8 0 01-.45.59 2 2 0 01-.69.38c-.27.1-.57.14-.9.14a1.95 1.95 0 01-.38-.04 1.27 1.27 0 01-.3-.08v-.28l.22.03.3.01c.27 0 .49-.05.65-.15.17-.1.3-.23.38-.37.08-.15.14-.3.17-.46a2.58 2.58 0 00.04-.43c0-.32-.04-.58-.13-.77a1.2 1.2 0 00-.32-.45.97.97 0 00-.4-.2 1.84 1.84 0 00-.4-.05 4.36 4.36 0 00-.34 0 1.78 1.78 0 00-.38.08 7.87 7.87 0 00-.03.6v3.09zm9.43 1.52l-.55.14a8.54 8.54 0 01-.96.2 3.99 3.99 0 01-.48.02 4.4 4.4 0 01-1.4-.2 3.06 3.06 0 01-1.08-.6 2.8 2.8 0 01-.7-.96 3.02 3.02 0 01-.25-1.26c0-.49.09-.93.25-1.32.17-.39.4-.72.7-.99.31-.26.67-.47 1.09-.6a4.26 4.26 0 012.47-.09l.49.11c.16.04.34.07.53.09a8.22 8.22 0 00-.12.63 13.56 13.56 0 00-.07.75h-.29a4.46 4.46 0 00-.23-.59.98.98 0 00-.27-.36c-.26-.2-.65-.29-1.2-.29-.34 0-.66.06-.94.19a2 2 0 00-.7.51 2.21 2.21 0 00-.44.79 3.84 3.84 0 000 2.05c.1.33.24.62.43.87.2.24.45.44.74.58.3.14.65.21 1.06.21.25 0 .47-.02.68-.08a1.58 1.58 0 00.56-.26c.11-.09.22-.23.34-.43a4.84 4.84 0 00.3-.59h.28a20.83 20.83 0 01-.12.61l-.06.38-.06.5m3.3-3.92l-.02-.64a9.61 9.61 0 00-.05-.62 2.7 2.7 0 00-.38-.03h-.37l-.4.03a.96.96 0 00-.43.16.72.72 0 00-.23.3 8.33 8.33 0 00-.2.51h-.31c.04-.24.07-.49.09-.77l.05-.78a39.76 39.76 0 001.81.08h1.86a25.14 25.14 0 001.96-.08 98.84 98.84 0 00-.12.77l-.05.37-.04.41h-.31a2.78 2.78 0 00-.1-.47c-.06-.18-.12-.3-.2-.36a.7.7 0 00-.32-.13 3.29 3.29 0 00-.54-.04h-.31c-.14 0-.25.01-.32.03l-.06.62a9.37 9.37 0 00-.02.64V7.1c0 .24.01.46.03.67.02.21.06.38.12.52.04.1.15.16.33.2l.6.13v.29a18.17 18.17 0 00-.75-.04 33.69 33.69 0 00-1.65 0l-.75.04v-.29l.6-.13c.18-.04.3-.1.33-.2a1.49 1.49 0 00.12-.52c.02-.2.02-.43.02-.67V4.7zm5.27-1.76a5.1 5.1 0 00.6-.04 6.43 6.43 0 011.42.02c.23.04.44.11.63.21a1.2 1.2 0 01.64 1.1 1 1 0 01-.15.55 1.24 1.24 0 01-.35.37 1.88 1.88 0 01-.44.23 3.95 3.95 0 01-.42.13v.05c.63.09 1.11.28 1.45.58.34.3.5.67.5 1.13 0 .22-.04.43-.12.63a1.34 1.34 0 01-.4.52 2.18 2.18 0 01-.73.37 3.66 3.66 0 01-1.41.12l-.36-.02-.4-.03a9.36 9.36 0 00-.46 0 24.09 24.09 0 00-1.34.04V8.6c.45-.1.72-.26.81-.45.06-.13.1-.29.12-.46.02-.17.03-.37.03-.61V4.7c0-.24-.01-.46-.03-.67a1.48 1.48 0 00-.12-.52c-.05-.1-.14-.16-.27-.2a28.84 28.84 0 00-.54-.14V2.9a14.09 14.09 0 001.34.05zm.62 2.43l.15.01h.17c.14 0 .29-.01.44-.05.15-.03.29-.09.41-.17a1 1 0 00.3-.33c.08-.14.12-.32.12-.52 0-.23-.03-.4-.1-.53a.77.77 0 00-.25-.3.84.84 0 00-.34-.13 1.97 1.97 0 00-.58-.02 2.12 2.12 0 00-.25.03 4.56 4.56 0 00-.06.59 20 20 0 00-.01.75v.67zm0 1.72l.01.67c.02.21.04.36.08.45.06.11.18.18.36.21.18.04.35.05.51.05.4 0 .7-.11.9-.34.19-.23.28-.52.28-.88 0-.43-.14-.77-.44-1.03s-.71-.39-1.23-.39h-.25c-.08 0-.15 0-.22.02v1.24zM220.22 6h-.32a2.17 2.17 0 00-.25.04v1.04a14.26 14.26 0 00.06 1.21c.13.04.31.06.53.06a14.3 14.3 0 001.28-.02c.24-.02.41-.06.53-.13a1.23 1.23 0 00.32-.34 4.42 4.42 0 00.36-.62h.3a13.4 13.4 0 00-.24 1.65 21.75 21.75 0 00-1.08-.04 37.35 37.35 0 00-.68 0h-2.1a15.65 15.65 0 00-.86.02l-.38.02v-.29l.54-.13c.13-.04.22-.1.27-.2.07-.14.1-.3.12-.52.02-.2.03-.43.03-.67V4.7c0-.24-.01-.46-.03-.68a1.47 1.47 0 00-.12-.51c-.04-.1-.13-.16-.27-.2l-.54-.14V2.9l.38.02.43.02H220.26l.8-.02a58.37 58.37 0 011.74-.02 13.26 13.26 0 00-.27 1.4h-.28a5.82 5.82 0 00-.1-.4.86.86 0 00-.17-.32c-.08-.1-.22-.15-.42-.17a7.61 7.61 0 00-.59-.02h-.51l-.3.02-.43.02c-.04.12-.06.3-.07.55l-.01.73v.8a6.69 6.69 0 00.57.04h.33l.54-.03a.6.6 0 00.4-.17c.07-.07.12-.16.16-.24.04-.07.09-.18.13-.3h.29a8.83 8.83 0 00-.05 1.42c0 .14.01.32.04.53h-.29a3.21 3.21 0 00-.12-.33.81.81 0 00-.18-.25c-.08-.08-.2-.13-.4-.14a8.04 8.04 0 00-.52-.02h-.33zm4.82-1.3c0-.25 0-.48-.02-.7a1.5 1.5 0 00-.12-.53c-.04-.1-.13-.15-.27-.18l-.54-.13V2.9c.21.01.44.03.68.03a23.43 23.43 0 001.54 0c.24 0 .47-.02.69-.03v.28l-.55.13c-.14.03-.23.09-.27.18a1.52 1.52 0 00-.11.54 9.38 9.38 0 00-.03.68v.79c.12.01.29.03.5.03l.7.02h.9a16.6 16.6 0 001.2-.05V4.7c0-.24-.01-.47-.03-.69a1.54 1.54 0 00-.12-.53c-.04-.1-.13-.15-.27-.18a11.49 11.49 0 01-.54-.13V2.9c.22.01.44.03.69.03a23.36 23.36 0 001.54 0c.24 0 .47-.02.68-.03v.28l-.54.13c-.14.03-.23.09-.27.18a1.54 1.54 0 00-.12.54 9.99 9.99 0 00-.02.68v2.39c0 .24 0 .46.02.67.02.21.06.38.12.52.04.1.13.16.27.2.14.05.32.1.54.13v.29a18.47 18.47 0 00-1.46-.05 18.64 18.64 0 00-1.45.05v-.29l.54-.12c.14-.04.23-.11.27-.21.07-.14.1-.3.12-.52.02-.2.02-.43.02-.67V6.06a5.98 5.98 0 00-.49-.04 18.62 18.62 0 00-.7 0h-1.6a6.01 6.01 0 00-.5.04v1.03c0 .23.01.46.03.67.01.21.05.38.11.52.04.1.13.16.27.2.14.05.32.1.55.13v.29a18.7 18.7 0 00-1.46-.05 18.64 18.64 0 00-1.45.05v-.29l.54-.12c.14-.04.23-.11.27-.21.06-.14.1-.3.12-.52l.02-.67V4.7zm8.11 0c0-.25 0-.48-.02-.7a1.5 1.5 0 00-.12-.53c-.04-.1-.13-.15-.27-.18l-.54-.13V2.9c.21.01.44.03.68.03a23.43 23.43 0 001.54 0c.25 0 .47-.02.69-.03v.28l-.54.13c-.14.03-.23.09-.27.18a1.5 1.5 0 00-.12.54 8.85 8.85 0 00-.03.68v.79c.12.01.29.03.5.03l.7.02h.9a16.51 16.51 0 001.2-.05V4.7c0-.24 0-.47-.03-.69a1.54 1.54 0 00-.12-.53c-.04-.1-.13-.15-.26-.18a11.73 11.73 0 01-.55-.13V2.9c.22.01.45.03.69.03a23.36 23.36 0 001.54 0c.24 0 .47-.02.68-.03v.28a11.49 11.49 0 01-.54.13c-.14.03-.23.09-.27.18a1.54 1.54 0 00-.12.54 9.99 9.99 0 00-.02.68v2.39c0 .24 0 .46.02.67.02.21.06.38.12.52.04.1.13.16.27.2.14.05.32.1.54.13v.29a18.47 18.47 0 00-1.45-.05 18.82 18.82 0 00-1.46.05v-.29l.55-.12c.14-.04.23-.11.27-.21.06-.14.1-.3.11-.52.02-.2.03-.43.03-.67V6.06a5.98 5.98 0 00-.5-.04 18.62 18.62 0 00-.7 0h-1.6a6.01 6.01 0 00-.5.04v1.03c0 .23.01.46.03.67.01.21.05.38.12.52.04.1.13.16.27.2.14.05.32.1.54.13v.29a18.7 18.7 0 00-1.46-.05 18.64 18.64 0 00-1.45.05v-.29l.54-.12c.14-.04.23-.11.27-.21.06-.14.1-.3.12-.52.02-.2.02-.43.02-.67V4.7zm9.12.74a2.19 2.19 0 01.3-.03 4.87 4.87 0 011.31.08c.32.06.6.17.83.31.24.14.43.33.58.56.15.23.22.52.22.86 0 .25-.05.48-.15.7a1.51 1.51 0 01-.44.52c-.2.15-.42.26-.69.35a3 3 0 01-.89.12c-.24 0-.5 0-.75-.03a8.49 8.49 0 00-.82-.04 30.91 30.91 0 00-1.46.05v-.29l.54-.13c.14-.04.23-.1.27-.2a1.49 1.49 0 00.12-.52 8.88 8.88 0 00.03-.67V4.7c0-.24-.01-.46-.03-.67a1.49 1.49 0 00-.12-.52c-.04-.1-.13-.16-.27-.2l-.54-.14V2.9c.22.01.44.03.69.03a29.38 29.38 0 001.6 0c.28 0 .53-.02.74-.03v.28l-.6.13c-.18.04-.29.11-.33.2a1.47 1.47 0 00-.12.53 8.48 8.48 0 00-.02.67v.75zm0 1.58v.69c.02.2.05.36.1.46.06.1.17.18.33.21.17.04.33.06.49.06.13 0 .27-.02.41-.06a.95.95 0 00.4-.2 1.08 1.08 0 00.28-.37c.07-.16.11-.35.11-.59 0-.43-.13-.76-.4-1a1.58 1.58 0 00-1.08-.35 3.83 3.83 0 00-.64.05v1.1zm4.12-2.33c0-.24 0-.47-.02-.69a1.56 1.56 0 00-.12-.53c-.04-.1-.13-.15-.27-.18a11.52 11.52 0 01-.54-.13V2.9c.21.01.44.03.69.03a23.36 23.36 0 002.22-.03v.28a11.36 11.36 0 01-.54.13c-.14.03-.23.09-.27.18a1.52 1.52 0 00-.12.53 9.44 9.44 0 00-.02.7v2.38c0 .24 0 .46.02.67.02.21.06.38.12.52.04.1.13.17.27.2.14.05.32.1.54.13v.29a16.67 16.67 0 00-.68-.04 26.7 26.7 0 00-1.54 0l-.69.04v-.29l.54-.12c.14-.04.23-.11.27-.21.07-.13.1-.3.12-.52a9.48 9.48 0 00.02-.67V4.7zm3.82 0c0-.24 0-.47-.02-.68a1.5 1.5 0 00-.12-.54c-.04-.1-.13-.15-.27-.18l-.54-.13V2.9c.21.01.44.03.68.03a23.43 23.43 0 001.54 0c.25 0 .47-.02.69-.03v.28l-.54.13c-.14.03-.23.09-.27.18a1.5 1.5 0 00-.12.54 8.85 8.85 0 00-.03.68v2.48l3.42-3.37a.56.56 0 00-.13-.35c-.05-.06-.15-.11-.29-.15l-.54-.14V2.9c.22.01.45.03.69.03a23.43 23.43 0 001.54 0c.24 0 .47-.02.68-.03v.28a12.08 12.08 0 01-.54.13c-.14.03-.23.09-.27.18a1.52 1.52 0 00-.12.54 9.41 9.41 0 00-.02.68V7.1c0 .24 0 .46.02.67.02.21.06.38.12.52.04.1.13.16.27.2.14.05.32.1.54.13v.29a18.7 18.7 0 00-1.45-.05 18.88 18.88 0 00-1.46.05v-.29l.54-.12c.14-.04.23-.11.27-.21.07-.14.1-.3.12-.52.02-.2.03-.43.03-.67v-2.6l-3.42 3.37.02.2a.8.8 0 00.1.24c.05.1.15.16.29.2l.55.11v.29a18.7 18.7 0 00-1.46-.05 18.64 18.64 0 00-1.45.05v-.29l.54-.12c.14-.04.23-.11.27-.21.06-.14.1-.3.12-.52l.02-.67V4.7zm4.86-3.96a4.82 4.82 0 01-.95.85c-.2.12-.42.23-.66.31a2.35 2.35 0 01-1.34.06 2.19 2.19 0 01-.51-.2 1.45 1.45 0 01-.37-.26.45.45 0 01-.15-.3.44.44 0 01.06-.2.99.99 0 01.53-.48c.12.19.31.36.58.51.26.16.6.23.98.23.29 0 .57-.07.86-.2a2.84 2.84 0 00.74-.54l.23.22zm7.18 4.68a33.88 33.88 0 00.05-1.11l-.03-.42a.9.9 0 00-.12-.36c-.06-.09-.18-.16-.35-.2a7.17 7.17 0 00-.59-.16V2.9c.22.02.43.04.64.04h.63l.5-.01.4-.03.2.53.17.42a12.83 12.83 0 00.37.85l.85 1.85.2.43.15.3h.04c.1-.16.2-.38.31-.65l.74-1.6.45-1.02c.14-.33.28-.7.41-1.1.13.02.28.03.47.03h.46a15.7 15.7 0 001.16-.04v.28a6.52 6.52 0 00-.58.15.64.64 0 00-.35.21.55.55 0 00-.06.17 2.1 2.1 0 00-.05.45v.16a39.77 39.77 0 00.04.99l.08 1.55.07.83c.04.27.08.46.15.6.04.1.13.16.26.2l.55.13v.29a21.44 21.44 0 00-.69-.04 26.88 26.88 0 00-2.34.04v-.28l.6-.13c.17-.04.28-.1.33-.2a.83.83 0 00.08-.28l.01-.33v-.34l-.02-.5-.06-1.54a31.81 31.81 0 00-.03-.53 40.28 40.28 0 01-.03-.55h-.05a17.23 17.23 0 01-.44 1.04l-.94 2.04a44.77 44.77 0 00-.68 1.6h-.29a52.18 52.18 0 00-.3-.72l-.34-.73-1.04-2.26a10.97 10.97 0 01-.14-.3 2.66 2.66 0 01-.09-.24 7.6 7.6 0 00-.07-.2l-.08-.23h-.05l-.05.58a18.46 18.46 0 00-.03.62l-.05 1.31a18.57 18.57 0 00-.02.87v.37a.82.82 0 00.07.31c.04.1.14.16.32.2l.6.13v.29a7.37 7.37 0 00-.65-.04 39.38 39.38 0 00-1.4 0 7.05 7.05 0 00-.6.04v-.28l.6-.14c.17-.04.28-.1.33-.2.06-.13.12-.34.16-.63.04-.29.07-.6.09-.92l.07-1.31zm9.8-1.87c0 .1.06.23.16.42l.5.87 1 1.8h.05l1.03-2.17.25-.56a.93.93 0 00.08-.36c0-.04-.02-.09-.08-.13a.6.6 0 00-.2-.1 3.72 3.72 0 00-.58-.15V2.9a17.48 17.48 0 001.28.04 10.19 10.19 0 001-.04v.28a2.28 2.28 0 00-.55.22c-.1.06-.22.2-.33.43a59.07 59.07 0 00-.44.93l-1.31 2.7a7.9 7.9 0 01-.45.83 1.98 1.98 0 01-.37.45.83.83 0 01-.35.2 1.77 1.77 0 01-.4.04c-.29 0-.56-.05-.82-.15 0-.33 0-.62-.02-.87a13.55 13.55 0 00-.05-.6h.3l.2.42c.05.12.11.23.18.32a.51.51 0 00.2.2c.08.02.15.04.23.04a.56.56 0 00.36-.13c.1-.08.2-.24.3-.47l-1.7-2.86-.59-.96c-.17-.28-.33-.46-.46-.52a7.6 7.6 0 00-.33-.13 2.64 2.64 0 00-.29-.09V2.9c.18.01.4.03.66.03a24.07 24.07 0 001.45 0c.26 0 .49-.02.7-.03v.28a5.86 5.86 0 01-.19.06 1.3 1.3 0 00-.2.07.6.6 0 00-.15.1.2.2 0 00-.06.15m7.06 5.42c-.2 0-.39-.01-.56-.03a14.53 14.53 0 01-.96-.17 5.17 5.17 0 00-.49-.07l.08-.61a9.21 9.21 0 00.06-.76l.02-.32h.31c.01.15.05.31.09.5.04.18.1.34.2.48.07.12.22.24.45.34.23.11.5.16.8.16.5 0 .86-.1 1.1-.29.23-.2.35-.52.35-.98 0-.43-.14-.77-.44-1-.3-.25-.69-.37-1.17-.37h-.36a4.68 4.68 0 00-.42.03l.03-.24.01-.28H278.8c.3 0 .56-.03.74-.11a1.19 1.19 0 00.43-.29.84.84 0 00.2-.36c.03-.13.05-.25.05-.35a1.15 1.15 0 00-.1-.5.73.73 0 00-.25-.3.86.86 0 00-.35-.13 2.06 2.06 0 00-.91.05.95.95 0 00-.42.2c-.11.12-.2.26-.28.41l-.2.5h-.3a37.5 37.5 0 00.05-1.41 2.26 2.26 0 00.37-.06l.39-.09a4.48 4.48 0 011-.1c.28 0 .54.02.79.07s.47.14.66.25a1.23 1.23 0 01.62 1.1c0 .23-.05.42-.15.57-.1.15-.23.28-.38.38a1.67 1.67 0 01-.47.23l-.4.12v.04c.14.02.32.05.53.1.2.05.4.13.6.25.19.13.35.3.48.52.13.22.2.5.2.85 0 .31-.08.57-.22.79a1.61 1.61 0 01-.57.52c-.24.13-.52.22-.83.28a5.55 5.55 0 01-.96.08m6.13-2.96h-.32a2.17 2.17 0 00-.25.04v1.04a14.35 14.35 0 00.06 1.21c.13.04.31.06.53.06a14.3 14.3 0 001.28-.02c.24-.02.42-.06.53-.13.1-.07.22-.18.33-.34a4.43 4.43 0 00.35-.62h.3a13.4 13.4 0 00-.24 1.65 21.75 21.75 0 00-1.08-.04 37.35 37.35 0 00-.68 0h-2.1a15.65 15.65 0 00-.86.02l-.38.02v-.29l.54-.13c.13-.04.23-.1.27-.2.07-.14.1-.3.12-.52.02-.2.03-.43.03-.67V4.7c0-.24-.01-.46-.03-.68a1.47 1.47 0 00-.12-.51c-.04-.1-.13-.16-.26-.2l-.55-.14V2.9l.38.02.43.02H285.3l.8-.02a58.37 58.37 0 011.74-.02 13.26 13.26 0 00-.26 1.4h-.29a5.82 5.82 0 00-.1-.4.86.86 0 00-.16-.32c-.08-.1-.23-.15-.43-.17a7.61 7.61 0 00-.59-.02h-.51l-.3.02a15.65 15.65 0 01-.43.02c-.04.12-.06.3-.07.55l-.01.73v.8l.25.03h.65c.18 0 .36 0 .54-.02a.6.6 0 00.4-.17c.07-.07.12-.16.16-.24a3.02 3.02 0 00.13-.3h.3a8.07 8.07 0 00-.07.97 15.44 15.44 0 00.05.98h-.29a3.46 3.46 0 00-.12-.33.81.81 0 00-.18-.25c-.08-.08-.2-.13-.4-.14a8 8 0 00-.52-.02h-.33zm4.82-1.3c0-.25 0-.48-.02-.7a1.5 1.5 0 00-.12-.53c-.04-.1-.13-.15-.27-.18a12.08 12.08 0 01-.54-.13V2.9c.21.01.44.03.68.03a23.43 23.43 0 001.54 0c.24 0 .47-.02.69-.03v.28l-.55.13c-.14.03-.23.09-.27.18a1.5 1.5 0 00-.11.54 8.85 8.85 0 00-.03.68v2.48l3.41-3.37a.56.56 0 00-.13-.35c-.05-.06-.14-.11-.28-.15l-.54-.14V2.9c.21.01.44.03.69.03a23.43 23.43 0 001.53 0c.25 0 .48-.02.7-.03v.28l-.55.13c-.14.03-.23.09-.27.18a1.52 1.52 0 00-.12.54 9.41 9.41 0 00-.02.68V7.1c0 .24 0 .46.02.67.02.21.06.38.12.52.04.1.13.16.27.2.14.05.32.1.54.13v.29a18.7 18.7 0 00-1.45-.05 18.88 18.88 0 00-1.46.05v-.29l.54-.12c.14-.04.23-.11.27-.21.06-.14.1-.3.12-.52.02-.2.02-.43.02-.67v-2.6l-3.4 3.37.01.2a.8.8 0 00.1.24c.05.1.15.16.29.2l.55.11v.29a18.7 18.7 0 00-1.46-.05 18.64 18.64 0 00-1.45.05v-.29l.54-.12c.14-.04.23-.11.27-.21a1.49 1.49 0 00.12-.52l.02-.67V4.7zm4.86-3.97a5 5 0 01-.4.43 3.6 3.6 0 01-.55.42 2.94 2.94 0 01-.66.31 2.35 2.35 0 01-1.34.06 2.19 2.19 0 01-.51-.2 1.45 1.45 0 01-.37-.26c-.1-.1-.15-.2-.15-.3a.44.44 0 01.06-.2.99.99 0 01.53-.48c.12.19.3.36.58.51.26.16.6.23.98.23.29 0 .57-.07.86-.2a2.84 2.84 0 00.74-.54l.23.22zM152.45 17.8c0-.24-.01-.47-.03-.69a1.5 1.5 0 00-.12-.53c-.04-.1-.13-.15-.27-.18l-.54-.13v-.29l.69.04a23.43 23.43 0 001.54 0c.24 0 .47-.02.68-.04v.3l-.54.12c-.14.03-.23.09-.27.18a1.5 1.5 0 00-.12.53 8.87 8.87 0 00-.02.69v2.48l3.41-3.38a.56.56 0 00-.13-.34c-.05-.07-.14-.12-.28-.15l-.54-.14v-.29l.68.04a23.43 23.43 0 001.54 0c.24 0 .47-.02.69-.04v.3a13.59 13.59 0 01-.55.12c-.13.03-.23.09-.27.18a1.52 1.52 0 00-.11.53 9.43 9.43 0 00-.03.69v2.38c0 .24.01.47.03.68.01.2.05.38.11.52.04.1.13.16.27.2.14.05.32.1.55.13V22a18.7 18.7 0 00-1.46-.05 18.88 18.88 0 00-1.45.05v-.29l.54-.12c.14-.05.23-.12.27-.21.06-.14.1-.31.12-.52l.02-.68v-2.6l-3.41 3.38c0 .05 0 .12.02.2a.8.8 0 00.1.24c.05.09.14.15.28.2l.55.11V22a18.7 18.7 0 00-1.45-.05 18.64 18.64 0 00-1.46.05v-.29l.55-.12c.13-.05.22-.12.26-.21.07-.14.1-.31.12-.52.02-.21.03-.44.03-.68V17.8zm9.4 4.27c-.2 0-.39-.01-.56-.04a17.58 17.58 0 01-.5-.07 16.39 16.39 0 01-.46-.1 5.17 5.17 0 00-.49-.07l.08-.6a9.2 9.2 0 00.06-.77l.02-.3h.3c.02.14.05.3.1.48.04.19.1.35.2.5.07.11.22.22.45.33.23.1.5.16.8.16.5 0 .86-.1 1.1-.29.23-.2.35-.52.35-.98 0-.43-.15-.77-.44-1.01-.3-.24-.69-.37-1.17-.37l-.36.01a4.68 4.68 0 00-.43.03 6.73 6.73 0 01.05-.52H161.53c.3 0 .55-.03.74-.11.19-.08.33-.18.43-.29a.84.84 0 00.2-.36 1.51 1.51 0 00.04-.36c0-.2-.03-.37-.1-.5a.71.71 0 00-.24-.29.86.86 0 00-.35-.13 2.01 2.01 0 00-.92.05.93.93 0 00-.41.2c-.11.12-.2.25-.28.41-.07.16-.14.32-.2.5h-.31a49.68 49.68 0 00.06-1.42 2.23 2.23 0 00.37-.05l.39-.09a4.48 4.48 0 011-.1c.28 0 .54.02.79.07s.47.14.66.25a1.24 1.24 0 01.62 1.1.97.97 0 01-.16.56c-.1.16-.23.28-.37.39a1.67 1.67 0 01-.47.23l-.41.11v.05c.15.02.33.05.54.1.2.04.4.13.6.25.19.13.35.3.48.52.13.21.2.5.2.85 0 .3-.08.57-.22.79a1.6 1.6 0 01-.57.52c-.24.13-.52.22-.83.28a5.53 5.53 0 01-.96.08m3.72-3.26c0-.44.1-.84.28-1.2.19-.36.44-.67.75-.92a3.71 3.71 0 013.66-.52 2.67 2.67 0 011.5 1.7c.12.36.18.74.18 1.13 0 .45-.1.86-.28 1.24a3.11 3.11 0 01-.74.97 3.49 3.49 0 01-3.67.57 2.8 2.8 0 01-.95-.76 3.18 3.18 0 01-.55-1.04 3.95 3.95 0 01-.18-1.17m3.19-2.38c-.72 0-1.24.2-1.57.6-.33.4-.5.95-.5 1.66 0 .36.03.71.1 1.05s.19.65.35.92a1.8 1.8 0 001.62.9c.35 0 .66-.06.92-.18s.47-.29.64-.5c.18-.23.3-.48.38-.78a4.75 4.75 0 00.01-2 2.63 2.63 0 00-.34-.86 1.74 1.74 0 00-.64-.6 1.98 1.98 0 00-.97-.21m6.16 2.17c.07-.02.17-.03.3-.04a4.6 4.6 0 011.32.1 2.6 2.6 0 01.83.31c.24.15.43.33.58.56.14.22.22.49.22.8a1.51 1.51 0 01-.6 1.22c-.2.15-.42.26-.68.35a3 3 0 01-.9.12l-.75-.03a8.49 8.49 0 00-.82-.04 18.7 18.7 0 00-1.45.05v-.29l.54-.14c.14-.03.23-.1.27-.2.06-.13.1-.3.12-.51l.02-.68V17.8c0-.24 0-.47-.02-.68a1.47 1.47 0 00-.12-.51c-.04-.1-.13-.17-.27-.2l-.54-.14v-.29a12.6 12.6 0 001.45.05h.48c.36 0 .77 0 1.25-.02a44.14 44.14 0 011.56-.03 20.37 20.37 0 00-.14 1.46h-.29a4.4 4.4 0 00-.16-.45 1.32 1.32 0 00-.2-.33.34.34 0 00-.17-.1 1.49 1.49 0 00-.24-.06 2.64 2.64 0 00-.26-.02 4.76 4.76 0 00-.22 0h-.4l-.62.04-.04.23a5.52 5.52 0 00-.05.69v1.16zm0 1.52l.01.7c.01.2.04.36.1.46.05.1.17.17.33.21.16.04.32.05.48.05a1.7 1.7 0 00.42-.05.95.95 0 00.39-.2c.11-.1.2-.22.28-.37a1.34 1.34 0 00.12-.6c0-.4-.14-.72-.4-.95a1.6 1.6 0 00-1.08-.34 3.83 3.83 0 00-.65.04v1.05zm6.2.06c0 .24.01.47.03.68.02.21.06.38.12.52.04.1.15.16.35.2l.7.13V22a28.84 28.84 0 00-2.46-.04l-.7.04v-.29l.55-.14c.14-.03.23-.1.27-.2a1.49 1.49 0 00.12-.51 8.86 8.86 0 00.03-.68V17.8c0-.24-.01-.46-.03-.68a1.49 1.49 0 00-.12-.51c-.04-.1-.13-.17-.27-.2l-.54-.14v-.28a17.57 17.57 0 001.29.04 10.34 10.34 0 00.75-.04l.37-.03c.12-.02.22-.02.3-.02.78 0 1.37.17 1.77.5.4.34.6.8.6 1.37 0 .26-.05.5-.16.74a1.8 1.8 0 01-.45.58 2 2 0 01-.69.4 2.76 2.76 0 01-1.28.09 1.27 1.27 0 01-.3-.09v-.28a1.5 1.5 0 00.22.04l.3.01c.27 0 .49-.05.66-.15a1.12 1.12 0 00.37-.37c.09-.15.14-.3.17-.47a2.58 2.58 0 00.04-.42c0-.32-.04-.58-.13-.77a1.2 1.2 0 00-.32-.45.97.97 0 00-.4-.2 1.84 1.84 0 00-.4-.06l-.34.02a1.78 1.78 0 00-.38.07 7.87 7.87 0 00-.03.59v3.1zm7.37 0a4.07 4.07 0 00-.38-.03h-1.19c-.13 0-.27 0-.42.02l-.24.63-.1.27a.92.92 0 00-.05.28c0 .06.03.1.08.15.05.04.12.07.2.1a1.8 1.8 0 00.26.07l.29.06V22a18.18 18.18 0 00-.56-.05 10.77 10.77 0 00-.8-.03 5.77 5.77 0 00-.6.03l-.42.05v-.27a2.35 2.35 0 00.34-.07l.3-.12a.68.68 0 00.3-.36l.2-.5 1.85-4.77h.28l1.97 4.83.18.4c.05.13.11.23.18.3a.66.66 0 00.27.18c.12.05.25.08.38.11V22a1.98 1.98 0 00-.22-.02l-.32-.01a616.13 616.13 0 00-.35-.01 7.04 7.04 0 00-.3-.01l-.94.01a7.72 7.72 0 00-.57.04v-.27a3.63 3.63 0 00.53-.13.71.71 0 00.19-.1.17.17 0 00.07-.15.75.75 0 00-.06-.28 9.45 9.45 0 01-.1-.25l-.25-.65zm-.78-.5h.34l.22-.03-.78-2h-.05l-.74 2a1.5 1.5 0 00.27.02h.74zm5.68 2.39c-.2 0-.38-.01-.55-.04a17.58 17.58 0 01-.5-.07 16.39 16.39 0 01-.47-.1 5.17 5.17 0 00-.48-.07l.07-.6a9.2 9.2 0 00.06-.77l.02-.3h.31c.02.14.05.3.1.48.03.18.1.35.19.5.07.11.22.22.45.33.23.1.5.16.8.16.5 0 .86-.1 1.1-.29.24-.2.36-.52.36-.98 0-.43-.15-.77-.45-1.01-.3-.25-.69-.37-1.16-.37l-.37.01a4.68 4.68 0 00-.42.03l.03-.25c0-.1 0-.19.02-.28l.28.02h.29c.3 0 .56-.04.74-.12.19-.08.33-.18.43-.29a.84.84 0 00.2-.36 1.51 1.51 0 00.05-.36 1.14 1.14 0 00-.1-.5.72.72 0 00-.25-.29.86.86 0 00-.35-.13 2.01 2.01 0 00-.91.05.93.93 0 00-.42.2c-.11.12-.2.25-.27.41-.08.16-.14.32-.2.5h-.32a37.94 37.94 0 00.06-1.42 2.26 2.26 0 00.37-.05l.39-.09a4.48 4.48 0 011-.1c.28 0 .54.02.79.07s.47.14.66.25a1.25 1.25 0 01.62 1.1c0 .23-.05.41-.15.56-.1.16-.23.28-.38.39a1.67 1.67 0 01-.46.23c-.17.05-.3.09-.42.11v.05c.15.02.33.05.54.1.2.04.4.13.6.25a1.52 1.52 0 01.68 1.37c0 .3-.07.57-.22.79a1.61 1.61 0 01-.57.52 2.8 2.8 0 01-.82.28 5.55 5.55 0 01-.97.08m4.56-4.27c0-.24-.01-.47-.03-.69a1.5 1.5 0 00-.11-.53c-.04-.1-.13-.16-.27-.18l-.55-.13v-.29l.69.04a23.43 23.43 0 001.54 0c.24 0 .47-.02.69-.04v.3a17.04 17.04 0 01-.55.12c-.14.03-.23.09-.27.18a1.5 1.5 0 00-.12.53 8.87 8.87 0 00-.02.69v2.48l3.41-3.38a.56.56 0 00-.13-.34c-.05-.07-.14-.12-.28-.15l-.54-.14v-.29l.68.04a23.43 23.43 0 001.54 0c.25 0 .47-.02.69-.04v.3a13.59 13.59 0 01-.54.12c-.14.03-.23.09-.27.18a1.52 1.52 0 00-.12.53 9.43 9.43 0 00-.02.69v2.38c0 .24 0 .47.02.68.01.2.05.38.12.52.04.1.13.16.27.2.13.05.32.1.54.13V22a18.7 18.7 0 00-1.46-.05 18.88 18.88 0 00-1.45.05v-.29l.54-.12c.14-.05.23-.12.27-.21.06-.14.1-.31.12-.52l.02-.68v-2.6l-3.41 3.38c0 .05 0 .12.02.2a.8.8 0 00.1.24c.05.09.14.15.29.2l.55.11V22a18.7 18.7 0 00-1.46-.05 18.64 18.64 0 00-1.46.05v-.29l.55-.12c.14-.05.23-.12.27-.21.06-.14.1-.31.11-.52.02-.21.03-.44.03-.68V17.8zm9.3 0v-.65a11.26 11.26 0 00-.06-.62 2.73 2.73 0 00-.38-.02h-.37c-.1 0-.23 0-.4.03a.96.96 0 00-.43.16.72.72 0 00-.23.3 8.33 8.33 0 00-.2.51h-.31c.04-.24.07-.5.09-.77l.05-.78.8.05 1.01.02h1.86a25.14 25.14 0 001.96-.07 98.85 98.85 0 00-.12.77l-.05.36-.04.42h-.31a2.77 2.77 0 00-.1-.48c-.06-.17-.12-.29-.2-.35a.7.7 0 00-.32-.14 3.29 3.29 0 00-.54-.03h-.31c-.14 0-.25 0-.32.02l-.06.63a9.42 9.42 0 00-.01.64v2.38c0 .24 0 .47.02.68.02.2.06.38.12.52.04.1.15.16.33.2l.6.13V22a18.17 18.17 0 00-.75-.04 33.69 33.69 0 00-1.65 0c-.29 0-.54.02-.75.04v-.29l.6-.13c.18-.04.29-.1.33-.2a1.51 1.51 0 00.12-.52 8.93 8.93 0 00.02-.68V17.8zm6.47 1.31h-.32a2.17 2.17 0 00-.25.04v1.03a14.17 14.17 0 00.06 1.22c.13.03.3.05.53.06a15.9 15.9 0 001.28-.02c.24-.02.41-.06.52-.14.12-.07.22-.18.33-.33.11-.15.23-.36.35-.62h.31a13.4 13.4 0 00-.25 1.65 21.75 21.75 0 00-1.08-.04 30.1 30.1 0 00-.68-.01H212a16.92 16.92 0 00-.81.05v-.29l.53-.14c.14-.03.23-.1.28-.2.06-.13.1-.3.12-.51.02-.21.02-.44.02-.68V17.8c0-.24 0-.47-.02-.68a1.47 1.47 0 00-.12-.52c-.04-.1-.13-.16-.27-.2l-.54-.13v-.29a15.58 15.58 0 00.81.05H213.76l.8-.02a58.51 58.51 0 011.74-.03 13.07 13.07 0 00-.27 1.41h-.28a5.69 5.69 0 00-.1-.4.86.86 0 00-.17-.33c-.08-.09-.22-.15-.43-.16a7.61 7.61 0 00-.58-.03h-.25l-.26.01-.3.02a15.65 15.65 0 01-.43.02c-.04.11-.06.3-.07.54l-.02.74v.8l.26.03h.65c.18 0 .35 0 .53-.02a.6.6 0 00.4-.17c.07-.08.13-.16.17-.24a3.02 3.02 0 00.13-.3h.29a8.07 8.07 0 00-.06.97 15.56 15.56 0 00.05.98h-.3a3.37 3.37 0 00-.11-.33.83.83 0 00-.18-.25c-.08-.08-.21-.13-.4-.14a8 8 0 00-.52-.02h-.33zm8.16-.72v-.49-.55a9.34 9.34 0 00-.03-.49 2.44 2.44 0 00-.04-.33 6.94 6.94 0 00-.61-.02h-.21c-.15 0-.3 0-.45.02a.7.7 0 00-.34.12c-.08.07-.14.18-.18.35a13.61 13.61 0 00-.22 1.4l-.12.78a11.95 11.95 0 01-.2 1c-.08.29-.18.58-.3.89-.15.33-.34.58-.58.75a1.24 1.24 0 01-.73.25.58.58 0 01-.25-.07.96.96 0 01-.42-.4.53.53 0 01-.07-.27.47.47 0 01.07-.25.84.84 0 01.18-.21.77.77 0 01.22-.14.66.66 0 01.24-.04c.06.15.13.28.22.37.08.08.17.13.25.13.2 0 .4-.22.55-.66a6.2 6.2 0 00.28-1.02 39.75 39.75 0 00.3-1.85l.03-.5a1.48 1.48 0 00-.04-.38.52.52 0 00-.13-.22.84.84 0 00-.36-.17l-.5-.12v-.3c.22 0 .44.02.68.04l.77.02h2.5c.27 0 .53 0 .77-.02l.68-.05v.31l-.55.14c-.14.03-.23.1-.26.2a.94.94 0 00-.08.3 11.11 11.11 0 00-.06.99v2.19a11.05 11.05 0 00.06.98c.02.14.04.24.08.3.03.1.12.17.26.2l.55.14v.31a41.69 41.69 0 00-.65-.05 11.34 11.34 0 00-.75-.02 14.08 14.08 0 00-1.51.07v-.3l.54-.15c.14-.03.23-.1.27-.2a.95.95 0 00.07-.3 12.55 12.55 0 00.07-1.48v-1.2zm4.82.16a2.19 2.19 0 01.3-.04 4.94 4.94 0 011.32.09c.3.06.59.16.82.3s.43.34.58.57c.15.23.22.51.22.86 0 .25-.05.48-.15.69a1.51 1.51 0 01-.44.53 2.19 2.19 0 01-.69.35 2.96 2.96 0 01-.89.12 8.03 8.03 0 01-.75-.03 8.82 8.82 0 00-.82-.04 26.51 26.51 0 00-1.46.05v-.29l.55-.14c.13-.03.22-.1.26-.2.07-.13.1-.3.12-.51.02-.21.03-.44.03-.68V17.8c0-.24-.01-.47-.03-.68a1.46 1.46 0 00-.12-.51c-.04-.1-.13-.17-.26-.2l-.55-.14v-.29a20.92 20.92 0 001.46.05 26.1 26.1 0 001.57-.05v.3l-.6.12c-.18.04-.29.1-.33.2a1.46 1.46 0 00-.12.52 8.47 8.47 0 00-.02.68v.75zm0 1.57v.7c.02.2.05.36.1.46.06.1.17.17.34.21.16.04.32.05.48.05a1.7 1.7 0 00.41-.05.95.95 0 00.4-.2 1.09 1.09 0 00.28-.37 1.34 1.34 0 00.11-.6c0-.42-.13-.75-.4-.99s-.62-.35-1.08-.35a4.62 4.62 0 00-.64.05v1.1zm5.01-2.32c0-.24 0-.47-.03-.69a1.5 1.5 0 00-.11-.53c-.04-.1-.13-.16-.27-.18l-.55-.13v-.29l.69.04a23.43 23.43 0 001.54 0c.24 0 .47-.02.69-.04v.3l-.55.12c-.14.03-.23.09-.27.18a1.52 1.52 0 00-.11.53 9.4 9.4 0 00-.03.69v.79l.5.03.7.01h.9a18.66 18.66 0 001.2-.04v-.8c0-.23-.01-.46-.03-.68a1.54 1.54 0 00-.12-.53c-.04-.1-.13-.16-.27-.18a14.4 14.4 0 01-.54-.13v-.29l.69.04a23.36 23.36 0 001.54 0c.24 0 .47-.02.68-.04v.3l-.54.12c-.14.03-.23.09-.27.18a1.54 1.54 0 00-.12.53 9.96 9.96 0 00-.02.69v2.38c0 .24 0 .47.02.68.02.2.06.38.12.52.04.1.13.16.27.2.14.05.32.1.54.13V22a18.47 18.47 0 00-1.46-.05 18.64 18.64 0 00-1.45.05v-.29l.54-.12c.14-.05.23-.12.27-.21.07-.14.1-.31.12-.52.02-.21.02-.44.02-.68v-1.02a5.98 5.98 0 00-.5-.04 18.62 18.62 0 00-.69-.01h-.9l-.7.01a6.01 6.01 0 00-.5.04v1.02c0 .24 0 .47.02.68.02.2.06.38.12.52.04.1.13.16.27.2.14.05.32.1.55.13V22a18.7 18.7 0 00-1.46-.05 18.64 18.64 0 00-1.46.05v-.29l.55-.12c.14-.05.23-.12.27-.21.06-.14.1-.31.11-.52.02-.21.03-.44.03-.68V17.8zm9.11.75a2.19 2.19 0 01.3-.04 4.94 4.94 0 011.32.09c.32.06.59.16.83.3a1.57 1.57 0 01.8 1.42c0 .26-.05.5-.16.7a1.51 1.51 0 01-.44.53 2.2 2.2 0 01-.68.35 2.96 2.96 0 01-.9.12 8.03 8.03 0 01-.74-.03 8.82 8.82 0 00-.83-.04 26.53 26.53 0 00-1.45.05v-.29l.54-.14c.14-.03.23-.1.27-.2a1.49 1.49 0 00.12-.51l.02-.68V17.8c0-.24 0-.47-.02-.68a1.46 1.46 0 00-.12-.51c-.04-.1-.13-.17-.27-.2l-.54-.14v-.29a20.92 20.92 0 001.45.05 26.1 26.1 0 001.58-.05v.3l-.6.12c-.18.04-.3.1-.33.2a1.46 1.46 0 00-.12.52 8.47 8.47 0 00-.03.68v.75zm0 1.57c0 .26 0 .49.02.7 0 .2.04.36.1.46.05.1.16.17.32.21.16.04.32.05.48.05.14 0 .28-.01.42-.05a.95.95 0 00.39-.2c.11-.1.2-.22.28-.37a1.34 1.34 0 00.12-.6c0-.42-.14-.75-.4-.99a1.58 1.58 0 00-1.08-.35 4.6 4.6 0 00-.65.05v1.1zm4.13-2.32c0-.24 0-.47-.02-.69a1.56 1.56 0 00-.12-.53c-.04-.1-.13-.16-.27-.18a11.52 11.52 0 01-.54-.13v-.29a20.81 20.81 0 001.45.05 20.86 20.86 0 001.46-.05v.3l-.54.12c-.14.02-.23.09-.27.18a1.52 1.52 0 00-.12.53 9.44 9.44 0 00-.03.69v2.38c0 .24.01.47.03.68.01.21.05.38.12.52.04.1.13.16.27.2.14.05.32.1.54.13V22a16.58 16.58 0 00-.69-.04 26.57 26.57 0 00-1.54 0L244 22v-.29a4.57 4.57 0 00.54-.12c.14-.05.23-.12.27-.21.06-.14.1-.31.12-.52l.02-.68V17.8zm7.42 2.34l.72.95c.15.2.27.33.36.38a.86.86 0 00.32.14l.4.1V22l-.33-.03a7.07 7.07 0 00-.63-.02h-.43l-.93.01a11.73 11.73 0 00-.7.04v-.29a1.88 1.88 0 00.22-.05l.26-.07a.86.86 0 00.21-.1c.06-.05.1-.09.1-.14a.36.36 0 00-.06-.14 2 2 0 00-.12-.2 8.77 8.77 0 00-.35-.5l-.83-1.1-.69.98-.41.58c-.12.16-.17.29-.17.38 0 .04.03.08.08.12l.2.1.27.08.25.06V22a15.68 15.68 0 00-.66-.04 27.93 27.93 0 00-1.53 0c-.18 0-.37.02-.56.04v-.29a10.23 10.23 0 00.86-.24c.12-.04.24-.12.35-.22.1-.1.22-.21.32-.34a8.83 8.83 0 00.64-.86l.76-1.04-1.41-1.87-.33-.42a.71.71 0 00-.34-.26 3.63 3.63 0 00-.36-.1 9.42 9.42 0 00-.38-.09v-.29l.6.05a13.98 13.98 0 001.64 0l.65-.05v.3c-.12.01-.25.05-.37.1-.13.06-.2.11-.2.18 0 .07.05.16.13.28l.44.6.53.73.54-.78.35-.52a.61.61 0 00.12-.31c0-.07-.07-.13-.2-.18a2.3 2.3 0 00-.39-.1v-.3l.45.03a20.08 20.08 0 001.97-.03v.3l-.42.07a3.54 3.54 0 00-.46.12.91.91 0 00-.41.33c-.13.16-.31.41-.53.74l-.72 1.01 1.18 1.59zm6.78-2.34c0-.24 0-.47-.03-.69a1.5 1.5 0 00-.11-.53c-.04-.1-.13-.16-.27-.18l-.55-.13v-.29l.69.04a23.43 23.43 0 001.54 0c.24 0 .47-.02.69-.04v.3a15.87 15.87 0 01-.55.12c-.14.03-.23.09-.27.18a1.5 1.5 0 00-.12.53 8.87 8.87 0 00-.02.69v2.48l3.41-3.38a.56.56 0 00-.13-.34c-.05-.07-.14-.12-.28-.15a50.46 50.46 0 00-.54-.14v-.29l.68.04a23.43 23.43 0 001.54 0c.25 0 .47-.02.69-.04v.3a13.59 13.59 0 01-.54.12c-.14.03-.23.09-.27.18a1.52 1.52 0 00-.12.53 9.43 9.43 0 00-.02.69v2.38c0 .24 0 .47.02.68.01.2.05.38.12.52.04.1.13.16.27.2.13.05.32.1.54.13V22a18.7 18.7 0 00-1.46-.05 18.88 18.88 0 00-1.45.05v-.29l.54-.12c.14-.05.23-.12.27-.21.06-.14.1-.31.12-.52l.02-.68v-2.6l-3.41 3.38c0 .05 0 .12.02.2a.8.8 0 00.1.24c.05.09.14.15.29.2l.55.11V22a18.7 18.7 0 00-1.46-.05 18.64 18.64 0 00-1.46.05v-.29l.55-.12c.14-.05.23-.12.27-.21.06-.14.1-.31.11-.52.02-.21.03-.44.03-.68V17.8zm12.81 3.91l-.55.14a8.54 8.54 0 01-.96.19 3.99 3.99 0 01-.48.03c-.51 0-.98-.07-1.4-.2a3.06 3.06 0 01-1.08-.61 2.8 2.8 0 01-.7-.95 3.02 3.02 0 01-.25-1.26c0-.5.09-.93.25-1.32a2.74 2.74 0 01.7-.99c.31-.26.67-.47 1.09-.61a4.27 4.27 0 011.39-.22 7.92 7.92 0 011.08.14l.49.1.53.1a8.22 8.22 0 00-.12.62 13.51 13.51 0 00-.07.76h-.29a4.46 4.46 0 00-.23-.59.99.99 0 00-.27-.36c-.25-.2-.65-.29-1.2-.29-.34 0-.66.06-.94.19a1.99 1.99 0 00-.7.5c-.19.23-.34.49-.43.8a3.84 3.84 0 000 2.05 2.11 2.11 0 001.18 1.45c.28.14.63.21 1.04.21.25 0 .48-.03.69-.08a1.58 1.58 0 00.55-.26c.11-.1.23-.23.34-.43a4.63 4.63 0 00.3-.59h.28l-.05.3-.06.31a11.33 11.33 0 00-.13.87m3.22-1.53c0 .24.01.47.03.68.01.21.05.38.12.52.04.1.13.16.27.2l.54.13V22l-.74-.04a29.05 29.05 0 00-.72 0 34.19 34.19 0 00-1.45.04v-.29l.54-.14c.14-.03.23-.1.27-.2.06-.13.1-.3.12-.51l.02-.68V17.8c0-.24 0-.46-.02-.68a1.47 1.47 0 00-.12-.51c-.04-.1-.13-.17-.27-.2l-.54-.14v-.28c.21.01.46.03.73.03a19.53 19.53 0 002.06-.03v.28c-.22.06-.39.1-.49.14-.1.04-.16.1-.2.2a1.47 1.47 0 00-.12.51 8.48 8.48 0 00-.03.68v2.38zm.15-1.32l1.48-1.5.56-.58c.1-.1.16-.2.16-.26s-.06-.11-.18-.15a4.38 4.38 0 00-.46-.1v-.29a17.94 17.94 0 001.73.04c.23 0 .44-.02.64-.04v.3c-.19.02-.35.06-.47.1a1.23 1.23 0 00-.36.16 3.45 3.45 0 00-.38.3l-.53.52-1.18 1.17 1.78 2.07a5.47 5.47 0 00.76.75c.11.08.23.15.35.2l.42.16V22a13.35 13.35 0 00-.49-.04 6.4 6.4 0 00-.43-.02 5.33 5.33 0 00-.76.06 48.18 48.18 0 00-.88-1.05l-1.76-2.09zm6.52-2.2c0 .08.05.22.16.4l.49.88 1.01 1.8h.05l1.02-2.17c.12-.24.2-.43.25-.57a.93.93 0 00.09-.35c0-.04-.03-.09-.08-.13a.6.6 0 00-.2-.11 3.72 3.72 0 00-.58-.14v-.29a17.48 17.48 0 001.28.05 10.19 10.19 0 001-.05v.3c-.1.01-.18.05-.28.08a2.23 2.23 0 00-.27.12c-.11.07-.22.21-.34.44l-.44.93-1.3 2.7a8.06 8.06 0 01-.45.83c-.13.2-.25.35-.37.45a.84.84 0 01-.36.2 1.79 1.79 0 01-.4.04 2.2 2.2 0 01-.81-.16c0-.32-.01-.61-.03-.87a13.55 13.55 0 00-.05-.6h.31l.19.42.18.33a.51.51 0 00.21.2c.07.02.14.03.22.03a.56.56 0 00.36-.12c.1-.08.2-.24.31-.47l-1.7-2.86a83.82 83.82 0 00-.59-.97c-.17-.28-.33-.45-.47-.52a7.6 7.6 0 00-.32-.12 2.64 2.64 0 00-.3-.09v-.29l.66.04a24.07 24.07 0 001.46 0c.25 0 .48-.02.69-.04v.3a10.11 10.11 0 01-.18.05 1.3 1.3 0 00-.2.07.62.62 0 00-.15.1.2.2 0 00-.07.15m10.48 5.06l-.55.14a8.54 8.54 0 01-.96.19 3.99 3.99 0 01-.49.03c-.5 0-.97-.07-1.4-.2a3.06 3.06 0 01-1.07-.61 2.8 2.8 0 01-.7-.95 3.02 3.02 0 01-.25-1.26c0-.5.08-.93.25-1.32a2.74 2.74 0 01.7-.99c.3-.26.67-.47 1.08-.61a4.26 4.26 0 012.47-.08l.5.1.52.1a8.22 8.22 0 00-.11.62 13.51 13.51 0 00-.08.76h-.28a4.46 4.46 0 00-.24-.59.99.99 0 00-.26-.36c-.26-.2-.66-.29-1.2-.29a2.3 2.3 0 00-.94.19 1.99 1.99 0 00-.7.5c-.2.23-.34.49-.44.8a3.84 3.84 0 000 2.05 2.2 2.2 0 001.18 1.45c.29.14.64.21 1.05.21.24 0 .47-.03.68-.08a1.58 1.58 0 00.56-.26c.1-.1.22-.23.34-.43.11-.2.2-.4.29-.59h.29a20.82 20.82 0 01-.12.61l-.06.38-.06.5m6.8 0c-.2.04-.39.08-.55.13a8.54 8.54 0 01-.96.19 3.99 3.99 0 01-.49.03c-.5 0-.97-.07-1.4-.2a3.06 3.06 0 01-1.07-.61 2.8 2.8 0 01-.7-.95 3.02 3.02 0 01-.25-1.26c0-.5.08-.93.25-1.32.17-.4.4-.72.7-.99.3-.26.67-.47 1.08-.61a4.26 4.26 0 012.47-.08l.5.1c.15.04.33.07.52.1a8.22 8.22 0 00-.11.62 14.67 14.67 0 00-.08.76h-.28a4.46 4.46 0 00-.24-.59.99.99 0 00-.27-.36c-.25-.2-.65-.29-1.19-.29-.35 0-.66.06-.94.19a1.99 1.99 0 00-.7.5 2.21 2.21 0 00-.44.8 3.84 3.84 0 000 2.05c.09.33.23.62.43.86a2.1 2.1 0 00.74.59c.3.14.65.21 1.06.21.24 0 .47-.03.68-.08a1.58 1.58 0 00.56-.26c.1-.1.22-.23.34-.43.11-.2.2-.4.29-.59h.29a20.82 20.82 0 01-.12.61l-.06.38-.06.5m3.29-3.92a9.61 9.61 0 00-.06-1.27 2.7 2.7 0 00-.38-.02h-.37c-.1 0-.24 0-.4.03a.96.96 0 00-.44.16.72.72 0 00-.22.3 8.33 8.33 0 00-.2.51h-.32l.1-.77.05-.78.8.05 1 .02h1.87a25.14 25.14 0 001.96-.07 98.85 98.85 0 00-.12.77l-.05.36-.05.42h-.3a2.78 2.78 0 00-.1-.48c-.06-.17-.13-.29-.2-.35a.7.7 0 00-.32-.14 3.29 3.29 0 00-.54-.03h-.32c-.14 0-.25 0-.32.02l-.05.63a9.37 9.37 0 00-.02.64v2.38l.02.68c.02.2.06.38.12.52.04.1.15.16.33.2l.6.13V22a18.17 18.17 0 00-.74-.04 33.69 33.69 0 00-1.66 0c-.28 0-.53.02-.74.04v-.29l.6-.13c.18-.04.29-.1.33-.2a1.49 1.49 0 00.11-.52c.02-.21.03-.44.03-.68V17.8z" fill-opacity=".8" fill="#262626"/><g transform="translate(306.02 15.74)"><mask id="b" fill="#fff"><use xlink:href="#a"/></mask><path d="M1.67.28c.2 0 .41-.01.61-.03A6.43 6.43 0 013.7.27c.23.04.44.11.63.2a1.2 1.2 0 01.64 1.1c0 .23-.05.41-.15.56a1.24 1.24 0 01-.35.37 1.88 1.88 0 01-.44.23 4.02 4.02 0 01-.43.13v.05a2.7 2.7 0 011.45.57c.34.3.51.68.51 1.13 0 .23-.04.44-.12.63a1.34 1.34 0 01-.4.53 2.17 2.17 0 01-.73.36 3.66 3.66 0 01-1.42.13l-.35-.02a58.02 58.02 0 00-.4-.03 9.36 9.36 0 00-.47 0 24.09 24.09 0 00-1.34.04v-.29c.45-.11.72-.26.82-.45.06-.14.1-.3.12-.46a6.68 6.68 0 00.02-.62V2.05c0-.24 0-.47-.02-.68a1.49 1.49 0 00-.12-.51C1.1.76 1 .69.87.66A28.84 28.84 0 00.34.52V.23a16.4 16.4 0 001.33.05zm.62 2.44h.32c.15 0 .3 0 .44-.04.16-.03.3-.09.42-.17a1 1 0 00.3-.34c.08-.13.12-.3.12-.51 0-.23-.03-.4-.1-.54a.77.77 0 00-.26-.3A.84.84 0 003.2.7 1.97 1.97 0 002.6.68a2.12 2.12 0 00-.25.03 4.58 4.58 0 00-.05.59l-.02.75v.67zm0 1.71c0 .24 0 .47.02.68.01.2.04.36.08.45.05.1.17.18.36.21.18.03.35.05.5.05.4 0 .7-.12.9-.34.2-.23.29-.52.29-.88 0-.43-.15-.77-.45-1.03a1.8 1.8 0 00-1.22-.39h-.25l-.23.01v1.24z" fill="#515151" mask="url(#b)"/></g><path d="M152.45 30.88c0-.24-.01-.47-.03-.69a1.5 1.5 0 00-.12-.53c-.04-.1-.13-.16-.27-.19-.14-.02-.32-.07-.54-.12v-.29l.69.04a23.53 23.53 0 002.22-.04v.29c-.22.05-.4.1-.54.12-.14.03-.23.1-.27.19a1.5 1.5 0 00-.12.53 8.85 8.85 0 00-.02.69v2.48l3.41-3.38a.56.56 0 00-.13-.35c-.05-.06-.14-.1-.28-.15l-.54-.13v-.29l.68.04a23.53 23.53 0 002.23-.04v.29a12.08 12.08 0 01-.55.12c-.13.03-.23.1-.27.19a1.52 1.52 0 00-.11.53 9.41 9.41 0 00-.03.69v2.38c0 .24.01.47.03.68.01.2.05.38.11.52.04.09.13.16.27.2.14.05.32.09.55.13v.29a18.7 18.7 0 00-1.46-.05 18.88 18.88 0 00-1.45.05v-.3c.22-.03.4-.07.54-.12.14-.04.23-.11.27-.2.06-.14.1-.31.12-.52l.02-.68v-2.6l-3.41 3.38c0 .05 0 .12.02.19a.8.8 0 00.1.25c.05.09.14.15.28.19l.55.12v.28a18.7 18.7 0 00-1.45-.04 18.64 18.64 0 00-1.46.04v-.28c.23-.04.4-.08.55-.13.13-.04.22-.11.26-.2a1.49 1.49 0 00.12-.53c.02-.2.03-.43.03-.67v-2.38zm8.46.71a42.08 42.08 0 00.04-1.1 3.4 3.4 0 00-.03-.43.9.9 0 00-.11-.35c-.06-.1-.18-.16-.35-.21a7.07 7.07 0 00-.6-.15v-.29c.22.03.43.04.64.04l.63.01c.17 0 .34 0 .5-.02l.4-.03.2.53.17.42a12.83 12.83 0 00.38.85l.85 1.85a21.36 21.36 0 01.34.74h.05c.09-.16.19-.38.3-.65l.75-1.61.45-1.02c.14-.32.27-.69.4-1.1.13.02.29.03.47.03l.47.01.61-.01a8.33 8.33 0 00.55-.04v.29a6.52 6.52 0 00-.59.15c-.17.05-.28.12-.34.2a.55.55 0 00-.06.18 2.01 2.01 0 00-.05.45v.15a40.2 40.2 0 00.03 1l.09 1.54c.01.3.04.58.07.84.03.26.08.46.14.6.04.09.13.16.27.2l.54.13v.29a16.86 16.86 0 00-.68-.04 26.88 26.88 0 00-2.35.04v-.3l.6-.12c.17-.03.29-.1.33-.2a.83.83 0 00.08-.28l.02-.32v-.35a173.63 173.63 0 00-.02-.49l-.06-1.55a31.68 31.68 0 00-.03-.53 29.06 29.06 0 01-.03-.54h-.05a17.23 17.23 0 01-.44 1.04l-.95 2.04a42.76 42.76 0 00-.68 1.6h-.28a68.02 68.02 0 00-.31-.72 20.3 20.3 0 00-.34-.74l-1.03-2.25-.14-.3a3.02 3.02 0 01-.1-.24 5.84 5.84 0 00-.06-.2l-.09-.23h-.04l-.05.57-.04.62-.04 1.31a18.57 18.57 0 00-.03.87v.37a.84.84 0 00.07.31c.04.1.15.17.32.2l.6.14v.29a6.98 6.98 0 00-.64-.05 40.26 40.26 0 00-1.41 0 6.68 6.68 0 00-.6.05v-.3l.6-.13c.17-.03.29-.1.33-.2.07-.13.12-.34.16-.63.05-.28.08-.59.1-.92l.07-1.3zm10.58.6h-.33a2.17 2.17 0 00-.25.03v1.04a14.33 14.33 0 00.06 1.22c.14.03.32.05.53.06a15.9 15.9 0 001.29-.02c.24-.02.41-.07.52-.14.11-.07.22-.18.33-.33.1-.15.23-.36.35-.62h.31a13.4 13.4 0 00-.25 1.64 21.75 21.75 0 00-1.08-.04 37.35 37.35 0 00-.68 0h-2.1a15.65 15.65 0 00-.86.02l-.37.02v-.28l.53-.14c.14-.03.23-.1.28-.2.06-.13.1-.3.12-.52a8.32 8.32 0 00.02-.67v-2.38c0-.24 0-.47-.02-.68a1.47 1.47 0 00-.12-.52c-.04-.1-.13-.16-.27-.2l-.54-.13v-.29a15.58 15.58 0 00.8.04l.41.01H171.53l.8-.02a58.51 58.51 0 011.73-.03 13.26 13.26 0 00-.26 1.41h-.29a5.8 5.8 0 00-.1-.41.86.86 0 00-.16-.32c-.08-.1-.22-.15-.43-.16a7.61 7.61 0 00-.58-.03h-.25a11.91 11.91 0 00-.57.03 15.65 15.65 0 01-.42.02c-.04.11-.07.3-.07.54a20.5 20.5 0 00-.02.74v.8a2.43 2.43 0 00.58.03h.33c.18 0 .35 0 .53-.02a.6.6 0 00.4-.17c.07-.08.13-.16.17-.24a3.02 3.02 0 00.13-.3h.29a8.07 8.07 0 00-.06.97 15.39 15.39 0 00.04.98h-.28a3.37 3.37 0 00-.12-.33.81.81 0 00-.18-.26c-.08-.08-.21-.12-.4-.13a8 8 0 00-.52-.02h-.33zm4.82-1.31c0-.24-.01-.47-.03-.69a1.5 1.5 0 00-.12-.53c-.04-.1-.13-.16-.26-.19-.14-.02-.32-.07-.55-.12v-.29l.69.04a23.53 23.53 0 002.22-.04v.29c-.22.05-.4.1-.54.12-.14.03-.23.1-.27.19a1.5 1.5 0 00-.12.53 8.85 8.85 0 00-.02.69v.78a15 15 0 001.2.05h.9a16.51 16.51 0 001.2-.05v-.78c0-.24-.02-.47-.03-.69a1.54 1.54 0 00-.12-.53c-.04-.1-.13-.16-.27-.19a11.73 11.73 0 01-.54-.12v-.29l.68.04a23.45 23.45 0 002.23-.04v.29c-.23.05-.4.1-.55.12-.14.03-.22.1-.26.19a1.54 1.54 0 00-.12.53 9.99 9.99 0 00-.03.69v2.38c0 .24.01.47.03.68.01.2.05.38.12.52.04.09.13.16.26.2.14.05.32.09.55.13v.29a18.47 18.47 0 00-1.46-.05 18.82 18.82 0 00-1.45.05v-.3c.22-.03.4-.07.54-.12.14-.04.23-.11.27-.2.06-.14.1-.31.12-.52l.02-.68v-1.02a5.98 5.98 0 00-.5-.04 18.62 18.62 0 00-.7-.01h-.9l-.7.01a6.01 6.01 0 00-.5.04v1.02c0 .24.02.47.03.68.02.2.06.38.12.52.04.09.13.16.27.2.14.05.32.09.54.13v.29a18.7 18.7 0 00-1.45-.05 18.64 18.64 0 00-1.46.05v-.3c.23-.03.4-.07.55-.12.13-.04.22-.11.26-.2.07-.14.1-.31.12-.52.02-.21.03-.44.03-.68v-2.38zm8.1 0c0-.24 0-.47-.02-.69a1.5 1.5 0 00-.12-.53c-.04-.1-.13-.16-.26-.19-.14-.02-.32-.07-.55-.12v-.29l.69.04a23.53 23.53 0 002.23-.04v.29c-.23.05-.4.1-.55.12-.14.03-.23.1-.27.19a1.52 1.52 0 00-.12.53 9.38 9.38 0 00-.02.69v2.48l3.41-3.38a.56.56 0 00-.13-.35c-.05-.06-.14-.1-.28-.15l-.54-.13v-.29l.68.04a23.53 23.53 0 002.23-.04v.29c-.22.05-.4.1-.54.12-.14.03-.23.1-.27.19a1.54 1.54 0 00-.12.53 9.41 9.41 0 00-.02.69v2.38c0 .24 0 .47.02.68.01.2.05.38.12.52.04.09.13.16.27.2.13.05.32.09.54.13v.29a18.7 18.7 0 00-1.46-.05 18.88 18.88 0 00-1.45.05v-.3c.22-.03.4-.07.54-.12.14-.04.23-.11.27-.2.06-.14.1-.31.12-.52l.02-.68v-2.6l-3.41 3.38c0 .05 0 .12.02.19a.8.8 0 00.1.25c.05.09.14.15.28.19l.55.12v.28a18.7 18.7 0 00-1.45-.04 18.64 18.64 0 00-1.46.04v-.28c.23-.04.4-.08.55-.13.14-.04.23-.11.26-.2.07-.14.1-.31.12-.53.02-.2.03-.43.03-.67v-2.38zm15.72 1.2a4.59 4.59 0 00-.45-.02h-1.88c-.12 0-.26 0-.41.02l-.56 1.56-.18.5a.87.87 0 00-.05.28c0 .05.03.1.08.14.06.04.13.08.22.1l.28.08.3.07v.29a17.04 17.04 0 00-1.55-.07 8.22 8.22 0 00-1.1.07v-.29c.12-.01.25-.04.37-.07a.94.94 0 00.33-.14c.11-.08.23-.22.34-.41a5.45 5.45 0 00.32-.69l2.63-6.92h.3l2.8 7c.11.27.2.46.24.6.06.13.13.24.24.32.1.08.22.15.35.2l.4.11v.29a3.19 3.19 0 00-.23-.03l-.36-.02a10.38 10.38 0 00-.7-.02 23.68 23.68 0 00-1.73.07v-.29l.28-.06c.1-.02.2-.05.28-.09a.99.99 0 00.2-.12.2.2 0 00.09-.16.9.9 0 00-.07-.32 18.15 18.15 0 00-.16-.38l-.62-1.6zm-.92-.57h.4a2.17 2.17 0 00.28-.04l-1.15-2.96h-.05l-1.09 2.97.26.03h1.35zm4.68 3a.5.5 0 01.06-.25 1 1 0 01.17-.22.98.98 0 01.22-.16.5.5 0 01.24-.07.5.5 0 01.24.07 1 1 0 01.39.38.5.5 0 01.06.24.5.5 0 01-.06.24 1.02 1.02 0 01-.39.39.5.5 0 01-.24.06.5.5 0 01-.24-.06 1 1 0 01-.39-.39.5.5 0 01-.06-.24m10.14.16a17.28 17.28 0 01-1.41.37 6.17 6.17 0 01-1.3.14 5.3 5.3 0 01-1.81-.3 4.13 4.13 0 01-1.42-.85 3.88 3.88 0 01-.93-1.34 4.4 4.4 0 01-.34-1.74c0-.67.11-1.28.34-1.82a3.84 3.84 0 01.94-1.37 4.21 4.21 0 011.42-.87 5.18 5.18 0 011.81-.3 6.7 6.7 0 011.61.18l.6.14c.18.05.38.09.6.11a12.22 12.22 0 00-.2 1.72h-.3a8.07 8.07 0 00-.27-.76c-.1-.23-.2-.4-.3-.48a1.01 1.01 0 00-.35-.18 3.6 3.6 0 00-.46-.1 5.31 5.31 0 00-.52-.06 8.84 8.84 0 00-.52-.02c-.52 0-.98.1-1.37.28a2.79 2.79 0 00-.99.77 3.4 3.4 0 00-.6 1.15 4.83 4.83 0 00-.2 1.43c0 .5.08.97.22 1.43.14.47.36.88.64 1.24a3.22 3.22 0 002.6 1.2 3.98 3.98 0 00.98-.15 3 3 0 00.45-.16c.14-.06.25-.13.33-.2a2.78 2.78 0 00.38-.54l.16-.35.14-.33h.3a29.6 29.6 0 00-.23 1.76m1.55-.16a.5.5 0 01.07-.24c.04-.08.1-.15.16-.22a.98.98 0 01.22-.16.5.5 0 01.24-.07.5.5 0 01.24.07 1 1 0 01.39.38.5.5 0 01.06.24.5.5 0 01-.06.24 1.02 1.02 0 01-.39.39.5.5 0 01-.24.06.5.5 0 01-.24-.06 1 1 0 01-.38-.39.5.5 0 01-.07-.24m3.89-5.41v-.5c0-.17 0-.34-.02-.5a4.48 4.48 0 00-.05-.45.85.85 0 00-.1-.3.7.7 0 00-.33-.21 7.14 7.14 0 00-.58-.17v-.3a38.48 38.48 0 001.64.06h6.2a15.32 15.32 0 001.64-.07v.31a7.53 7.53 0 00-.58.17.68.68 0 00-.33.21.9.9 0 00-.1.3 4.22 4.22 0 00-.05.45 6.93 6.93 0 00-.02.5v4.56a6.92 6.92 0 00.08.96.9.9 0 00.1.3c.06.08.17.16.32.21.16.06.36.11.58.17v.3a31.55 31.55 0 00-.78-.04 16.35 16.35 0 00-.86-.02 17.46 17.46 0 00-1.63.07v-.31c.22-.06.41-.11.57-.17a.68.68 0 00.34-.21.85.85 0 00.09-.3 3.94 3.94 0 00.05-.45c.02-.16.02-.33.02-.5v-5.84a5.91 5.91 0 00-.5-.04 18.58 18.58 0 00-.7 0h-2.69a18.54 18.54 0 00-1.19.04v5.83a7.53 7.53 0 00.07.96.85.85 0 00.1.3c.06.08.17.16.33.21.16.06.35.11.57.17v.3a31.55 31.55 0 00-.77-.04 16.32 16.32 0 00-.86-.02 17.36 17.36 0 00-1.64.07v-.31c.23-.06.42-.11.58-.17a.68.68 0 00.33-.21.85.85 0 00.1-.3 4.47 4.47 0 00.07-.96V29.1zm11.06.64c0 .09.05.22.15.41l.5.88 1 1.8h.05l1.03-2.17.25-.57a.93.93 0 00.08-.35c0-.05-.02-.1-.07-.14a.6.6 0 00-.2-.1 3.72 3.72 0 00-.59-.14v-.29a17.48 17.48 0 001.28.05 10.19 10.19 0 001-.05v.29a3.46 3.46 0 00-.27.09 2.28 2.28 0 00-.27.12c-.12.07-.23.21-.34.44a59.07 59.07 0 00-.44.92l-1.31 2.71c-.17.35-.32.62-.44.82-.13.2-.25.35-.37.46a.84.84 0 01-.36.2 1.77 1.77 0 01-.4.04 2.2 2.2 0 01-.82-.16c0-.32 0-.62-.02-.87a13.55 13.55 0 00-.05-.6h.31l.18.42c.07.13.13.24.19.32a.51.51 0 00.2.2.55.55 0 00.23.04.56.56 0 00.36-.12c.1-.09.2-.24.3-.48l-1.7-2.86a78.68 78.68 0 00-.58-.96c-.18-.28-.33-.45-.47-.52a7.6 7.6 0 00-.33-.12 2.64 2.64 0 00-.29-.1v-.28l.66.04a24.07 24.07 0 001.45 0c.26 0 .49-.02.7-.04v.29a10.11 10.11 0 01-.18.05 1.3 1.3 0 00-.2.07.62.62 0 00-.16.11.2.2 0 00-.06.15m13.81 3.53c0 .24.01.47.03.69.01.22.05.4.12.53.04.1.12.16.26.19l.55.12v.28a16.71 16.71 0 00-.69-.03 26.57 26.57 0 00-.77-.01h-6.92a26.51 26.51 0 00-1.45.04v-.28l.54-.12c.14-.03.23-.1.27-.2.06-.13.1-.3.12-.52a9.42 9.42 0 00.02-.69v-2.38c0-.24 0-.47-.02-.68a1.49 1.49 0 00-.12-.52c-.04-.1-.13-.16-.27-.2a4.74 4.74 0 00-.54-.13v-.29l.68.04a23.49 23.49 0 002.23-.04v.29l-.55.12c-.14.05-.23.12-.26.21a1.47 1.47 0 00-.12.52 8.48 8.48 0 00-.03.68v3.62a18.57 18.57 0 001.2.05h1.26v-3.67c0-.24 0-.47-.02-.68a1.49 1.49 0 00-.12-.52c-.04-.1-.13-.16-.27-.2a4.76 4.76 0 00-.54-.13v-.29l.68.04a23.45 23.45 0 002.23-.04v.29a4.78 4.78 0 00-.55.12c-.13.05-.22.12-.26.21a1.47 1.47 0 00-.12.52 8.48 8.48 0 00-.03.68v3.67h1.27a18.63 18.63 0 001.19-.05v-3.62c0-.24 0-.47-.02-.68a1.53 1.53 0 00-.12-.52c-.04-.1-.13-.16-.27-.2a4.81 4.81 0 00-.54-.13v-.29l.68.04a23.4 23.4 0 002.23-.04v.29l-.55.12c-.14.05-.22.12-.26.21a1.49 1.49 0 00-.12.52 9 9 0 00-.03.68v2.38zm3.82 0c0 .24 0 .46.03.68.01.2.05.38.11.51.04.1.13.17.27.2l.55.14v.28l-.74-.03a29.53 29.53 0 00-.72-.01 29.46 29.46 0 00-1.46.04v-.28l.55-.14c.14-.03.23-.1.27-.2.06-.13.1-.3.12-.52l.02-.67v-2.38c0-.24 0-.47-.03-.68a1.47 1.47 0 00-.11-.52c-.04-.1-.13-.16-.27-.2l-.55-.13v-.29l.74.04a19.53 19.53 0 002.06-.04v.29a5.31 5.31 0 00-.49.14.34.34 0 00-.2.2 1.47 1.47 0 00-.13.51 8.48 8.48 0 00-.02.68v2.38zm.14-1.32l1.48-1.5.56-.58c.11-.1.17-.2.17-.26s-.06-.11-.18-.15a4.38 4.38 0 00-.46-.1v-.29l.54.04a9.95 9.95 0 001.2 0c.22 0 .43-.02.63-.04v.29c-.2.03-.35.06-.48.1-.12.04-.24.09-.35.17a3.45 3.45 0 00-.38.3l-.53.51-1.18 1.17 1.78 2.08a5.45 5.45 0 00.76.75c.11.08.23.15.35.2l.41.16v.28a13.55 13.55 0 00-.48-.04 4.85 4.85 0 00-1.19.04 72.77 72.77 0 00-.88-1.05l-1.77-2.08zm5.73-1.06c0-.24 0-.47-.02-.69a1.5 1.5 0 00-.12-.53c-.04-.1-.13-.16-.27-.19-.14-.02-.32-.07-.54-.12v-.29l.68.04a23.53 23.53 0 002.23-.04v.29c-.23.05-.4.1-.55.12-.14.03-.23.1-.27.19a1.5 1.5 0 00-.11.53 8.85 8.85 0 00-.03.69v2.48l3.41-3.38a.56.56 0 00-.13-.35c-.05-.06-.14-.1-.28-.15l-.54-.13v-.29l.69.04a23.53 23.53 0 002.22-.04v.29c-.22.05-.4.1-.54.12-.14.03-.23.1-.27.19a1.52 1.52 0 00-.12.53 9.41 9.41 0 00-.02.69v2.38c0 .24 0 .47.02.67.01.22.06.39.12.52.04.1.13.17.27.21.14.05.32.09.54.13v.28a18.7 18.7 0 00-1.45-.04 18.88 18.88 0 00-1.46.04v-.28c.22-.04.4-.08.54-.13.14-.04.23-.11.27-.2.07-.14.1-.31.12-.53.02-.2.02-.43.02-.67v-2.6l-3.4 3.38v.19a.8.8 0 00.11.25c.05.09.15.15.29.19l.55.12v.28a18.7 18.7 0 00-1.46-.04 18.64 18.64 0 00-1.45.04v-.28c.22-.04.4-.08.54-.13.14-.04.23-.11.27-.2.06-.14.1-.31.12-.53l.02-.67v-2.38zm8.23 0c0-.24 0-.47-.02-.69a1.5 1.5 0 00-.12-.53c-.04-.1-.13-.16-.27-.19-.14-.02-.32-.07-.54-.12v-.29l.68.04a23.53 23.53 0 002.23-.04v.29c-.23.05-.4.1-.54.12-.14.03-.23.1-.27.19a1.52 1.52 0 00-.12.53 9.38 9.38 0 00-.03.69v.78a15.03 15.03 0 001.2.05h.9l.7-.01a5.6 5.6 0 00.5-.04v-.78c0-.24-.01-.47-.03-.69a1.54 1.54 0 00-.12-.53c-.04-.1-.13-.16-.27-.19-.14-.02-.32-.07-.54-.12v-.29l.69.04a23.45 23.45 0 002.22-.04v.29c-.22.05-.4.1-.54.12-.14.03-.23.1-.27.19a1.54 1.54 0 00-.12.53 9.99 9.99 0 00-.02.69v2.38c0 .24 0 .47.02.67.02.22.06.39.12.52.04.1.13.17.27.21.14.05.32.09.54.13v.28a18.47 18.47 0 00-1.45-.04 18.64 18.64 0 00-1.46.04v-.28c.22-.04.4-.08.54-.13.14-.04.23-.11.27-.2.07-.14.1-.31.12-.53.02-.2.03-.43.03-.67v-1.02a5.95 5.95 0 00-.5-.04 18.62 18.62 0 00-.7-.01h-.9l-.7.01a6.01 6.01 0 00-.5.04v1.02c0 .24.01.47.03.67.01.22.05.39.12.52.04.1.13.17.27.21.13.05.31.09.54.13v.28a18.7 18.7 0 00-1.46-.04 18.64 18.64 0 00-1.45.04v-.28c.22-.04.4-.08.54-.13.14-.04.23-.11.27-.2.06-.14.1-.31.12-.53l.02-.67v-2.38zm10.63 2.37a4.07 4.07 0 00-.38-.03h-1.19l-.42.03-.24.63a4.3 4.3 0 00-.1.27.92.92 0 00-.04.28c0 .06.02.1.07.14.06.04.12.08.2.1.07.03.16.06.26.08l.3.06v.26a18.56 18.56 0 00-.56-.04 10.77 10.77 0 00-.81-.03 5.77 5.77 0 00-.6.03l-.41.04v-.26a2.35 2.35 0 00.33-.07c.11-.03.21-.07.3-.12a.67.67 0 00.3-.36l.21-.5 1.84-4.77h.29l1.96 4.83.18.4c.06.13.12.23.18.3a.66.66 0 00.28.18c.12.04.24.08.38.11v.26a1.98 1.98 0 00-.22-.01l-.32-.01-.36-.02a8.87 8.87 0 00-.3 0h-.94a8.96 8.96 0 00-.57.04v-.26a3.63 3.63 0 00.53-.13.71.71 0 00.2-.1.17.17 0 00.07-.15.76.76 0 00-.07-.29 8.35 8.35 0 01-.1-.25l-.25-.64zm-.77-.5h.33c.06 0 .14 0 .23-.03l-.8-1.99h-.04l-.74 2 .28.02h.74z" fill-opacity=".8" fill="#262626"/><path d="M154.57 46.4v-.94a6.77 6.77 0 00-.06-.83 15.67 15.67 0 00-1.16-.04 4.03 4.03 0 00-.75.08 2.2 2.2 0 00-.36.1.98.98 0 00-.27.13.7.7 0 00-.14.18c-.05.08-.1.17-.14.27a14.66 14.66 0 00-.25.58h-.3a11.31 11.31 0 00.1-1.02l.04-.51a8.24 8.24 0 01.04-.43l.42.03a45.08 45.08 0 002 .05h3.43c.2 0 .38 0 .57-.02l.61-.02c.22 0 .47-.02.75-.04l-.13.98a54.4 54.4 0 00-.1.98h-.31a4.24 4.24 0 01-.05-.26 3.2 3.2 0 00-.16-.6.7.7 0 00-.1-.19 1.04 1.04 0 00-.47-.2 4.41 4.41 0 00-.98-.09l-.51.01a9.95 9.95 0 00-.53.03c-.04.23-.06.51-.06.83V50.49a6.42 6.42 0 00.06.95.85.85 0 00.1.3c.06.09.2.16.4.22.19.06.4.11.62.16v.31a23.96 23.96 0 00-.38-.02l-.45-.03a15.15 15.15 0 00-.48-.01 14.03 14.03 0 00-.88 0l-.48.01-.46.03-.37.02v-.3l.63-.17c.2-.06.33-.13.4-.22a.9.9 0 00.09-.3l.05-.45a7.55 7.55 0 00.02-.5V46.4zm6.04 1.8c0-.24-.01-.47-.03-.69a1.5 1.5 0 00-.12-.53c-.04-.1-.13-.16-.27-.18l-.54-.13v-.29l.69.04a23.53 23.53 0 002.22-.04v.3a15.87 15.87 0 01-.54.11c-.14.04-.23.1-.27.19a1.52 1.52 0 00-.12.53 9.4 9.4 0 00-.02.69v.78a18.57 18.57 0 001.2.05h.9a18.6 18.6 0 001.2-.05v-.78c0-.24-.02-.47-.03-.69a1.54 1.54 0 00-.12-.53c-.04-.1-.13-.16-.27-.18a14.4 14.4 0 01-.54-.13v-.29l.68.04a23.45 23.45 0 002.23-.04v.3a14.85 14.85 0 01-.55.11c-.14.04-.22.1-.26.19a1.54 1.54 0 00-.12.53c-.02.22-.03.45-.03.69v2.38c0 .24.01.47.03.68.01.2.05.38.12.52.04.1.12.16.26.2.14.05.32.09.55.13v.29a18.47 18.47 0 00-1.46-.05 18.64 18.64 0 00-1.45.05v-.29c.22-.04.4-.08.54-.13.14-.04.23-.1.27-.2a1.53 1.53 0 00.12-.52l.02-.68v-1.02a5.98 5.98 0 00-.5-.04 18.62 18.62 0 00-.7-.01h-.9l-.7.01a6.01 6.01 0 00-.5.04v1.02c0 .24.02.47.03.68.02.2.06.38.12.52.04.1.13.16.27.2.14.05.32.09.54.13v.29a18.7 18.7 0 00-1.45-.05 18.64 18.64 0 00-1.46.05v-.29c.23-.04.4-.08.55-.13.13-.04.22-.1.26-.2.07-.14.1-.31.12-.52.02-.21.03-.44.03-.68V48.2zm9.68 1.31a12.6 12.6 0 00-.57.03v1.04a14.33 14.33 0 00.06 1.22c.14.03.31.05.53.06a15.9 15.9 0 001.28-.02c.24-.02.42-.06.53-.14.11-.07.22-.18.33-.33.1-.15.22-.36.35-.62h.3a13.4 13.4 0 00-.24 1.65 21.75 21.75 0 00-1.08-.04 30.1 30.1 0 00-.68-.01h-2.52a17.3 17.3 0 00-.82.04v-.28l.54-.14c.14-.03.23-.1.28-.2.06-.13.1-.3.12-.51l.02-.68V48.2c0-.24 0-.47-.02-.68a1.47 1.47 0 00-.12-.52c-.04-.1-.13-.16-.27-.2l-.55-.13v-.29a15.93 15.93 0 00.82.05H170.34l.8-.02a58.37 58.37 0 011.73-.03 13.07 13.07 0 00-.26 1.41h-.29a5.69 5.69 0 00-.1-.41.86.86 0 00-.16-.32c-.08-.1-.22-.15-.43-.16a7.61 7.61 0 00-.58-.03h-.51a12.31 12.31 0 00-.73.05c-.04.11-.07.3-.08.54a20.5 20.5 0 00-.01.74v.8a2.43 2.43 0 00.57.03h.34c.17 0 .35 0 .53-.02a.6.6 0 00.4-.17c.07-.08.13-.16.17-.24l.13-.3h.28a8.07 8.07 0 00-.06.97 15.39 15.39 0 00.05.98h-.28a3.12 3.12 0 00-.12-.33.83.83 0 00-.18-.26c-.08-.08-.21-.12-.4-.13a7.4 7.4 0 00-.52-.02h-.34zm9.64.48v.49a7.54 7.54 0 00.07.95.85.85 0 00.1.3c.06.09.2.16.41.21.21.06.46.12.74.17v.31a64.29 64.29 0 00-.95-.05 16.35 16.35 0 00-1.79 0l-.77.05v-.3a6.98 6.98 0 00.57-.18.66.66 0 00.34-.21.85.85 0 00.09-.3l.05-.45a6.4 6.4 0 00.02-.5v-4.56a6.43 6.43 0 00-.02-.5 4.48 4.48 0 00-.05-.46.85.85 0 00-.1-.3.68.68 0 00-.33-.2 7.48 7.48 0 00-.57-.18v-.3c.1 0 .22 0 .36.02a49.43 49.43 0 00.8.04 5.29 5.29 0 00.73-.01 13 13 0 00.45-.05 21 21 0 01.46-.04 4.8 4.8 0 011.68.15c.4.11.73.28 1.01.5.29.22.5.48.65.8a2.53 2.53 0 01-.46 2.78 2.64 2.64 0 01-.9.59 3.43 3.43 0 01-1.81.18 6.67 6.67 0 01-.42-.1v-.3a4.75 4.75 0 00.75.04c.46 0 .8-.08 1.05-.24a1.51 1.51 0 00.55-.56c.11-.22.18-.44.2-.67l.03-.57c0-.5-.06-.89-.2-1.17a1.56 1.56 0 00-.47-.63 1.38 1.38 0 00-.63-.25 4.67 4.67 0 00-.65-.05l-.44.03a2.99 2.99 0 00-.5.11 12.08 12.08 0 00-.04.81V50zm5.8-1.8c0-.23 0-.46-.02-.67a1.49 1.49 0 00-.12-.52c-.04-.1-.13-.16-.27-.2a36.84 36.84 0 00-.54-.13v-.29l.68.04a23.43 23.43 0 002.23-.04v.3c-.23.04-.4.1-.55.13-.14.03-.22.1-.26.2a1.5 1.5 0 00-.12.51 9.54 9.54 0 00-.03.68v2.03c0 1.17.53 1.76 1.58 1.76.44 0 .8-.07 1.07-.2.27-.14.48-.32.63-.55.15-.22.25-.49.3-.79a6 6 0 00.07-.94V48.2c0-.24 0-.47-.02-.68a1.47 1.47 0 00-.12-.51c-.04-.1-.13-.17-.27-.2l-.54-.14v-.29a8.26 8.26 0 001.22.05 16.92 16.92 0 001.21-.05v.3c-.22.04-.4.1-.54.13s-.23.1-.27.2a1.47 1.47 0 00-.12.51 8.46 8.46 0 00-.02.68v1.31c0 .42-.04.81-.12 1.18-.08.36-.22.67-.41.93a1.97 1.97 0 01-.8.62c-.34.15-.76.23-1.27.23-.54 0-.97-.06-1.3-.18a2 2 0 01-.8-.48 1.59 1.59 0 01-.38-.72 3.65 3.65 0 01-.1-.86V48.2zm7.18 4.07c-.01-.38-.04-.7-.07-1l-.07-.63h.31a2.71 2.71 0 00.51.93c.11.13.28.23.5.31.23.08.49.12.8.12l.4-.03c.14-.03.27-.07.39-.14a.85.85 0 00.28-.27.73.73 0 00.1-.4 1.25 1.25 0 00-.07-.45.85.85 0 00-.21-.32 1.74 1.74 0 00-.36-.24 6.3 6.3 0 00-.5-.24l-.8-.34c-.43-.19-.74-.4-.92-.67a1.5 1.5 0 01-.28-.88 1.53 1.53 0 01.7-1.32c.2-.13.41-.23.65-.29.24-.06.47-.09.68-.09.36 0 .68.03.96.1l.83.19a6.89 6.89 0 00-.03 1.06l.02.37h-.3a4.1 4.1 0 00-.16-.5 1.2 1.2 0 00-.28-.4 1.05 1.05 0 00-.48-.26 2.26 2.26 0 00-.56-.08c-.14 0-.28.01-.4.04a.98.98 0 00-.35.14.81.81 0 00-.25.27.78.78 0 00-.1.4c0 .3.07.53.2.68a1.5 1.5 0 00.52.34l.81.34.65.3c.2.1.37.23.52.37.14.14.26.3.34.47.09.18.13.38.13.61 0 .33-.08.61-.24.84-.15.22-.34.4-.56.53a2.2 2.2 0 01-.7.27 3.27 3.27 0 01-.64.08 7.12 7.12 0 01-1.09-.09l-.45-.06a31.73 31.73 0 00-.43-.06M199 48.2c0-.24-.01-.47-.03-.69a1.5 1.5 0 00-.12-.53c-.04-.1-.13-.16-.26-.19-.14-.02-.32-.07-.55-.12v-.29l.69.04a23.53 23.53 0 002.22-.04v.3l-.54.11c-.14.03-.23.1-.27.19a1.5 1.5 0 00-.12.53 8.87 8.87 0 00-.02.69v.78a18.63 18.63 0 001.2.05h.9a18.63 18.63 0 001.2-.05v-.78c0-.24-.02-.47-.03-.69a1.54 1.54 0 00-.12-.53c-.04-.1-.13-.16-.27-.19-.14-.02-.32-.07-.54-.12v-.29l.68.04a23.45 23.45 0 002.23-.04v.3l-.55.11c-.14.03-.22.1-.26.19a1.54 1.54 0 00-.12.53 9.96 9.96 0 00-.03.69v2.38c0 .24.01.47.03.68.01.2.05.38.12.52.04.1.12.16.26.2.14.05.32.09.55.13v.29a18.47 18.47 0 00-1.46-.05 18.64 18.64 0 00-1.45.05v-.29c.22-.04.4-.08.54-.13.14-.04.23-.1.27-.2.06-.14.1-.31.12-.52l.02-.68v-1.02a5.98 5.98 0 00-.5-.04 18.62 18.62 0 00-.7-.01h-.9l-.7.01a6.01 6.01 0 00-.5.04v1.02c0 .24.02.47.03.68.02.2.06.38.12.52.04.1.13.16.27.2.14.05.32.09.54.13v.29a18.7 18.7 0 00-1.45-.05 18.64 18.64 0 00-1.46.05v-.29c.23-.04.4-.08.55-.13.13-.04.22-.1.26-.2.07-.14.1-.31.12-.52.02-.21.03-.44.03-.68V48.2zm9.11 2.38c0 .24 0 .47.03.68.01.2.05.38.11.52.04.1.13.16.27.2l.55.13v.29l-.74-.04a29.53 29.53 0 00-.72-.01 29.46 29.46 0 00-1.46.05v-.29l.55-.14c.14-.03.23-.1.27-.2.06-.13.1-.3.11-.51.02-.21.03-.44.03-.68V48.2c0-.24 0-.47-.03-.68a1.47 1.47 0 00-.11-.52c-.04-.1-.13-.16-.27-.2l-.55-.13v-.29l.74.04a19.53 19.53 0 002.06-.04v.3c-.23.05-.39.1-.49.13a.34.34 0 00-.2.2 1.47 1.47 0 00-.12.51 8.48 8.48 0 00-.03.68v2.38zm.14-1.32l1.48-1.5.56-.58c.11-.1.17-.2.17-.26s-.06-.11-.18-.15a4.38 4.38 0 00-.46-.1v-.29a17.94 17.94 0 001.73.04c.23 0 .44-.02.64-.04v.3c-.19.02-.35.06-.48.1a1.23 1.23 0 00-.35.16 3.45 3.45 0 00-.38.3l-.53.52-1.18 1.17 1.78 2.07a5.64 5.64 0 00.76.75c.11.08.22.15.34.2l.42.16v.29a13.35 13.35 0 00-.48-.05 4.85 4.85 0 00-1.19.05 48.18 48.18 0 00-.88-1.05l-1.77-2.09zm5.85-.47v-.5a9.92 9.92 0 00-.03-.52 8.35 8.35 0 00-.04-.46.94.94 0 00-.07-.3c-.04-.1-.15-.17-.33-.2-.18-.05-.38-.1-.6-.14v-.29l.74.04a28.75 28.75 0 001.65 0c.3 0 .54-.02.76-.04v.3l-.6.12c-.19.04-.3.1-.33.2a.89.89 0 00-.08.3l-.04.47a14.64 14.64 0 00-.03 1.02V50a22.35 22.35 0 00.07 1.48.9.9 0 00.08.3c.03.1.14.17.32.2.18.05.38.1.6.14v.29a16.54 16.54 0 00-.75-.04 34.24 34.24 0 00-1.65 0c-.28 0-.53.02-.74.04v-.29l.6-.13c.18-.04.29-.1.33-.2a.95.95 0 00.07-.3 7.56 7.56 0 00.06-1l.01-.5V48.8zm4.34 0v-.47a6.27 6.27 0 00-.06-.91 1.1 1.1 0 00-.08-.29.51.51 0 00-.15-.15 1.26 1.26 0 00-.24-.13 2.48 2.48 0 00-.54-.17v-.29a15.16 15.16 0 001.05.05h.27c.15 0 .29-.02.42-.05a40.8 40.8 0 001.66 1.83l1.22 1.28.54.56.47.47h.05V48.2c0-.24-.01-.47-.03-.68a1.51 1.51 0 00-.12-.52c-.04-.1-.15-.16-.32-.2a50.92 50.92 0 00-.6-.13v-.29l.55.04a19.24 19.24 0 001.42 0c.2 0 .37-.02.53-.04v.3l-.54.13c-.14.03-.23.1-.27.2a1.49 1.49 0 00-.12.51 9 9 0 00-.03.68v2.35a110.03 110.03 0 00.02 1.34l.02.5h-.29l-.78-.88a41.07 41.07 0 00-.76-.83l-1.41-1.5-.38-.4a14.33 14.33 0 01-.33-.35 41.23 41.23 0 01-.64-.71h-.05v2.86c0 .24 0 .47.02.68.02.2.06.38.12.52.04.1.15.16.33.2l.6.13v.29a9.28 9.28 0 00-.58-.04 24.86 24.86 0 00-1.48 0c-.22 0-.4.02-.56.04v-.29l.6-.13c.18-.04.29-.1.33-.2a1.49 1.49 0 00.12-.52l.02-.68V48.8z" fill-opacity=".4" fill="#262626"/><g transform="translate(151.51 56.61)"><mask id="d" fill="#fff"><use xlink:href="#c"/></mask><path d="M.24 8.62a20.62 20.62 0 00-.07-1.15l-.05-.46-.02-.32h.3a5.33 5.33 0 00.52 1.1c.13.17.36.32.7.46a3.58 3.58 0 001.97.12 1.52 1.52 0 00.54-.25c.15-.12.27-.26.36-.45.1-.18.14-.4.14-.65 0-.27-.05-.5-.16-.68a1.6 1.6 0 00-.41-.5 3.12 3.12 0 00-.6-.36 18.05 18.05 0 00-.7-.32l-.8-.35c-.52-.23-.93-.5-1.24-.83a1.73 1.73 0 01-.47-1.24A2.2 2.2 0 011.1.96a2.62 2.62 0 01.86-.44 3.44 3.44 0 01.99-.14 4.63 4.63 0 011.29.17l.57.14.56.12a3.23 3.23 0 00-.05.44 8.86 8.86 0 00.04 1.28h-.31a8.83 8.83 0 00-.21-.62 1.57 1.57 0 00-.3-.5c-.16-.2-.4-.33-.7-.4a3.6 3.6 0 00-.9-.13c-.53 0-.94.13-1.23.37-.3.25-.45.62-.45 1.12 0 .25.04.46.12.62.08.17.18.31.3.43.13.11.27.2.43.28l.5.22.8.34.82.37c.27.14.5.3.72.47a1.93 1.93 0 01.7 1.53c0 .46-.1.83-.28 1.14a2.18 2.18 0 01-.7.72c-.27.18-.57.3-.9.37-.32.07-.61.11-.88.11a5.91 5.91 0 01-1.31-.15 10.2 10.2 0 00-1.33-.2" fill="#A8A8A8" mask="url(#d)"/></g><path d="M160.2 61.29a9.61 9.61 0 00-.06-1.27 2.7 2.7 0 00-.38-.02h-.37c-.1 0-.24 0-.4.03a.96.96 0 00-.44.16.72.72 0 00-.22.3 8.33 8.33 0 00-.2.5h-.32l.1-.76.05-.78a32.4 32.4 0 001.81.07h1.86a25.14 25.14 0 001.96-.07l-.07.41-.05.36-.05.36-.05.42h-.3a2.87 2.87 0 00-.1-.48.73.73 0 00-.2-.36.7.7 0 00-.32-.13 3.29 3.29 0 00-.54-.03h-.31c-.15 0-.25 0-.33.02l-.05.63a9.42 9.42 0 00-.02.64v2.38c0 .24.01.47.03.67.01.22.05.39.12.52.04.1.15.17.32.2.18.05.38.1.6.14v.28a18.17 18.17 0 00-.74-.03 33.69 33.69 0 00-1.66 0c-.28 0-.53.02-.74.03v-.28l.6-.13c.18-.04.29-.11.33-.2a1.49 1.49 0 00.12-.53l.02-.67V61.3zm7.41 2.37a4.07 4.07 0 00-.38-.02h-1.19c-.13 0-.27 0-.42.02l-.24.63a4.25 4.25 0 00-.1.27.92.92 0 00-.05.28c0 .06.03.1.08.14a.71.71 0 00.2.1c.07.03.16.06.26.08l.29.06v.27a18.56 18.56 0 00-.56-.05c-.22-.02-.48-.03-.8-.03a5.77 5.77 0 00-.6.03 13.99 13.99 0 00-.42.05v-.27a2.35 2.35 0 00.34-.07c.11-.03.2-.07.3-.12a.68.68 0 00.3-.36l.21-.5 1.84-4.77h.28l1.97 4.83.18.4c.05.13.11.23.18.3a.66.66 0 00.27.18l.39.11v.27a1.98 1.98 0 00-.23-.02l-.32-.01a410.14 410.14 0 00-.35-.02 7.04 7.04 0 00-.3 0h-.94a8.15 8.15 0 00-.57.05v-.27a3.63 3.63 0 00.53-.13.67.67 0 00.19-.1.17.17 0 00.08-.15.75.75 0 00-.07-.28 9.45 9.45 0 01-.1-.25l-.25-.65zm-.78-.5h.34c.06 0 .14 0 .22-.02l-.78-2h-.05l-.74 2 .27.02h.74zm5.59-1.87l-.01-.65a9.61 9.61 0 00-.05-.62 2.7 2.7 0 00-.38-.02h-.37c-.1 0-.24 0-.4.03a.96.96 0 00-.44.16.72.72 0 00-.23.3 8.33 8.33 0 00-.2.5h-.3l.08-.76.05-.78a32.4 32.4 0 001.82.07h1.86a25.14 25.14 0 001.95-.07l-.06.41-.05.36-.05.36-.05.42h-.3a2.87 2.87 0 00-.11-.48.73.73 0 00-.2-.36.7.7 0 00-.31-.13 3.29 3.29 0 00-.55-.03h-.3c-.15 0-.26 0-.33.02l-.05.63a9.42 9.42 0 00-.02.64v2.38c0 .24 0 .47.02.67.02.22.06.39.12.52.04.1.15.17.33.2.18.05.38.1.6.14v.28a18.17 18.17 0 00-.74-.03 33.69 33.69 0 00-1.66 0c-.28 0-.53.02-.75.03v-.28l.6-.13c.19-.04.3-.11.33-.2a1.49 1.49 0 00.12-.53c.02-.2.03-.43.03-.67V61.3zm6.46 1.3l-.32.01a2.17 2.17 0 00-.25.03v1.04a14.26 14.26 0 00.06 1.22c.14.03.31.05.53.06a14.26 14.26 0 001.28-.02c.24-.02.42-.06.53-.14a1.26 1.26 0 00.33-.33c.1-.15.22-.36.35-.62h.3a13.4 13.4 0 00-.24 1.65 21.75 21.75 0 00-1.08-.04 30.1 30.1 0 00-.68-.01h-2.52a16.92 16.92 0 00-.81.04v-.28l.53-.14c.14-.03.23-.1.28-.2.06-.13.1-.3.12-.51l.02-.68V61.3c0-.24 0-.47-.03-.68a1.47 1.47 0 00-.11-.52c-.04-.1-.13-.16-.27-.2l-.55-.13v-.29l.38.03.44.02H178.93l.8-.02a58.51 58.51 0 011.73-.03 13.07 13.07 0 00-.26 1.41h-.29a5.69 5.69 0 00-.1-.41.86.86 0 00-.16-.32c-.08-.1-.22-.15-.43-.16a7.61 7.61 0 00-.58-.03h-.51l-.31.03a15.65 15.65 0 01-.42.02c-.05.11-.07.3-.08.54v1.54l.25.03h.65c.17 0 .35 0 .53-.02a.6.6 0 00.4-.17c.07-.08.12-.16.16-.24a3.02 3.02 0 00.14-.3h.28a8.07 8.07 0 00-.06.97 15.44 15.44 0 00.05.98h-.28a3.46 3.46 0 00-.12-.33.83.83 0 00-.18-.26c-.08-.08-.21-.12-.4-.13a8 8 0 00-.52-.02h-.34zm8.76-3.1l.02-.45a7.18 7.18 0 00.02-.41 2.8 2.8 0 00-.04-.56 1.05 1.05 0 00-.13-.32c-.06-.08-.2-.16-.4-.22a10.09 10.09 0 00-.64-.16v-.3a10.32 10.32 0 001.67.05l.32-.02.3-.03a2.99 2.99 0 01.2 0l.32.73.3.65.27.62c.1.2.19.4.28.63l.97 2.18.24.55a15.33 15.33 0 00.5 1.03h.05l.34-.71c.14-.3.29-.62.44-.98l.86-1.94a103.07 103.07 0 001.2-2.76 7.02 7.02 0 00.92.06 11.77 11.77 0 001.46-.07v.31a8.96 8.96 0 00-.63.16c-.2.06-.33.14-.4.22a.83.83 0 00-.1.38 6.19 6.19 0 00-.02.61v.76l.17 3.58.03.48a7.74 7.74 0 00.1.96.88.88 0 00.1.3c.06.1.17.17.33.22l.58.16v.3a27.03 27.03 0 00-.78-.04 16.47 16.47 0 00-1.79 0l-.46.02a16.22 16.22 0 00-.37.03v-.31l.63-.16c.2-.06.33-.14.4-.22.04-.08.08-.22.1-.4a5.9 5.9 0 00.03-.63 9.06 9.06 0 00-.03-.71l-.14-3.58-.03-.5a8.4 8.4 0 00-.03-.53h-.05l-.39.86-.37.85-1.55 3.5-.51 1.15-.3.68h-.17a18.52 18.52 0 00-.36-.87l-.38-.87-1.59-3.55-.47-1.03-.33-.72h-.05a21.52 21.52 0 00-.04.54c0 .18-.02.34-.03.49l-.12 3.58a4.19 4.19 0 000 .3v.33c0 .24 0 .47.02.67.01.2.05.35.1.44.07.08.2.16.4.22l.63.16v.3a9.9 9.9 0 00-.73-.04 18.29 18.29 0 00-2.25.05v-.31l.63-.16c.2-.05.34-.13.4-.22a.9.9 0 00.09-.3 5.86 5.86 0 00.06-.44c.01-.16.03-.33.03-.5l.03-.5.14-3.58zm11.29 1.8c0-.24-.01-.47-.03-.68a1.49 1.49 0 00-.12-.52c-.04-.1-.13-.16-.27-.2l-.54-.13v-.29l.69.04a23.32 23.32 0 001.53 0c.25 0 .48-.02.7-.04v.29l-.55.14c-.14.03-.23.1-.27.2a1.5 1.5 0 00-.12.51 9.56 9.56 0 00-.02.68v2.03c0 1.17.52 1.76 1.57 1.76.45 0 .8-.07 1.08-.2.27-.14.48-.32.63-.55.15-.22.25-.49.3-.79a6 6 0 00.07-.94v-1.31c0-.24-.01-.47-.03-.68a1.47 1.47 0 00-.12-.52c-.03-.1-.12-.16-.26-.2l-.54-.13v-.29a7.54 7.54 0 001.21.05l.7-.01a7.74 7.74 0 00.52-.04v.29l-.54.14c-.14.03-.23.1-.27.2a1.47 1.47 0 00-.12.51 8.46 8.46 0 00-.03.68v1.3c0 .43-.04.82-.12 1.18a2.41 2.41 0 01-.4.94 1.96 1.96 0 01-.8.62c-.35.15-.77.23-1.28.23-.53 0-.96-.06-1.3-.18a2 2 0 01-.79-.48 1.58 1.58 0 01-.38-.72 3.6 3.6 0 01-.1-.87V61.3zm7.18 4.06l-.07-1-.08-.63h.31a2.71 2.71 0 00.52.93c.11.13.28.23.5.31a2.33 2.33 0 001.2.09c.14-.03.26-.08.38-.14a.86.86 0 00.28-.27.73.73 0 00.1-.4c0-.18-.02-.33-.06-.45a.86.86 0 00-.22-.32 1.74 1.74 0 00-.36-.25 6.3 6.3 0 00-.5-.23l-.8-.34c-.43-.19-.73-.4-.92-.67a1.5 1.5 0 01-.27-.89 1.5 1.5 0 01.7-1.31c.2-.13.41-.23.65-.29a2.84 2.84 0 01.68-.09c.36 0 .67.03.95.1l.84.19a6.89 6.89 0 00-.03 1.06c0 .11 0 .23.02.37h-.31a4.27 4.27 0 00-.16-.5 1.18 1.18 0 00-.27-.4 1.05 1.05 0 00-.48-.27 2.26 2.26 0 00-.56-.07c-.15 0-.28.01-.41.04a.98.98 0 00-.35.14.8.8 0 00-.24.26.78.78 0 00-.1.4c0 .31.07.54.2.68.14.15.31.26.52.35l.8.33.65.3c.2.12.37.24.52.38a1.39 1.39 0 01.47 1.08c0 .33-.08.61-.23.83-.16.23-.34.4-.56.53a2.17 2.17 0 01-.7.28 3.27 3.27 0 01-.64.08 7.12 7.12 0 01-1.1-.09l-.44-.06a31.73 31.73 0 00-.43-.06m7.66-2.75h-.33a2.17 2.17 0 00-.25.03v1.04a14.35 14.35 0 00.06 1.22c.14.03.32.05.53.06a14.3 14.3 0 001.29-.02c.23-.02.41-.07.52-.14.11-.07.22-.18.33-.33a4.43 4.43 0 00.35-.62h.31a13.4 13.4 0 00-.25 1.65 21.75 21.75 0 00-1.08-.04 30.1 30.1 0 00-.68-.01h-2.52a16.92 16.92 0 00-.81.04v-.28l.53-.14c.14-.03.23-.1.28-.2.06-.13.1-.3.12-.51l.02-.68V61.3c0-.24 0-.47-.02-.68a1.47 1.47 0 00-.12-.52c-.04-.1-.13-.16-.27-.2l-.54-.13v-.29l.37.03.44.02H213.8l.8-.02a58.37 58.37 0 011.73-.03 13.07 13.07 0 00-.26 1.41h-.29a5.69 5.69 0 00-.1-.41.86.86 0 00-.16-.32c-.08-.1-.22-.15-.43-.16a7.61 7.61 0 00-.58-.03H214l-.3.03a15.65 15.65 0 01-.43.02c-.04.11-.07.3-.07.54l-.02.74v.8l.26.03h.65c.18 0 .35 0 .53-.02a.6.6 0 00.4-.17c.07-.08.13-.16.17-.24a3.02 3.02 0 00.13-.3h.29a8.07 8.07 0 00-.06.97 20.1 20.1 0 00.04.98h-.28a3.46 3.46 0 00-.12-.33.83.83 0 00-.18-.26c-.08-.08-.21-.12-.4-.13a8 8 0 00-.52-.02h-.33zm4.7-1.31c0-.24-.01-.47-.03-.68a1.49 1.49 0 00-.12-.52c-.04-.1-.13-.16-.27-.2l-.54-.13v-.29l.69.04a23.32 23.32 0 001.54 0c.24 0 .47-.02.68-.04v.29l-.54.14c-.14.03-.23.1-.27.2a1.5 1.5 0 00-.12.51 9.56 9.56 0 00-.02.68v2.02c0 1.18.52 1.77 1.57 1.77.45 0 .8-.07 1.08-.2.27-.14.48-.32.63-.55.15-.22.25-.49.3-.79a6.01 6.01 0 00.07-.94v-1.31c0-.24 0-.47-.02-.68a1.47 1.47 0 00-.12-.52c-.04-.1-.13-.16-.27-.2l-.54-.13v-.29a7.5 7.5 0 00.52.04 16.61 16.61 0 001.91-.04v.29l-.54.14c-.14.03-.23.1-.27.2a1.47 1.47 0 00-.12.51 8.46 8.46 0 00-.03.68v1.3c0 .43-.04.82-.11 1.18a2.41 2.41 0 01-.42.94 1.96 1.96 0 01-.8.62c-.33.15-.76.23-1.27.23-.53 0-.96-.06-1.3-.18a2 2 0 01-.79-.48 1.58 1.58 0 01-.38-.72 3.6 3.6 0 01-.1-.87V61.3zm8.1.71a42.77 42.77 0 00.04-1.1c0-.14 0-.27-.02-.43a.9.9 0 00-.12-.35c-.06-.09-.18-.16-.35-.21a7.17 7.17 0 00-.59-.15v-.29c.21.03.43.04.64.04l.62.01c.17 0 .34 0 .5-.02l.4-.03a56.1 56.1 0 00.37.95 12.83 12.83 0 00.38.85l.85 1.85a18.37 18.37 0 01.34.74h.05c.09-.17.2-.38.31-.65l.74-1.61.45-1.02c.14-.32.27-.69.41-1.1.13.02.28.03.47.03l.46.01a15.7 15.7 0 001.16-.05v.29a6.52 6.52 0 00-.59.15c-.17.05-.28.12-.34.2a.55.55 0 00-.06.18 2.1 2.1 0 00-.05.45v.15a39.76 39.76 0 00.04 1l.08 1.54c.01.3.04.58.07.84.03.26.08.46.14.6.04.09.13.16.27.2l.55.13v.28a16.86 16.86 0 00-.69-.03 26.88 26.88 0 00-2.35.03v-.28a32 32 0 01.6-.13c.18-.03.29-.1.33-.2a.8.8 0 00.08-.28l.02-.32v-.35a32.99 32.99 0 00-.02-.49l-.06-1.55a31.81 31.81 0 00-.03-.53 40.26 40.26 0 01-.03-.54h-.05l-.24.58-.2.46-.94 2.04a43.04 43.04 0 00-.68 1.6h-.3a68.26 68.26 0 00-.63-1.46l-1.04-2.25a12.5 12.5 0 01-.14-.3 2.66 2.66 0 01-.09-.24l-.07-.2-.09-.23h-.04a42.52 42.52 0 00-.05.57l-.04.62-.04 1.32a18.57 18.57 0 00-.03.87v.37c.01.12.03.22.07.3.04.1.15.17.33.2.17.05.37.1.6.14v.29a7 7 0 00-.65-.05 40.13 40.13 0 00-1.4 0 6.68 6.68 0 00-.6.05v-.29l.6-.14c.17-.03.28-.1.33-.2.06-.13.11-.34.16-.63.04-.28.07-.59.09-.91l.07-1.32zm11.75.3c0-.45.1-.85.28-1.2.18-.36.43-.67.74-.92s.67-.44 1.06-.58a3.72 3.72 0 011.22-.2c.53 0 1 .09 1.39.26a2.67 2.67 0 011.5 1.7c.12.36.18.74.18 1.13 0 .45-.1.86-.28 1.24-.19.37-.44.7-.75.97a3.5 3.5 0 01-3.67.56 2.8 2.8 0 01-.94-.75 3.18 3.18 0 01-.55-1.05 3.92 3.92 0 01-.18-1.16m3.18-2.39c-.71 0-1.24.2-1.57.6-.33.4-.49.96-.49 1.67 0 .36.03.7.1 1.05.07.35.18.65.35.92.16.26.37.48.63.64.27.17.6.25.98.25.36 0 .67-.06.93-.17.26-.12.47-.3.64-.5.17-.23.3-.48.38-.78.08-.3.12-.62.12-.98a4.69 4.69 0 00-.11-1.02 2.63 2.63 0 00-.35-.86 1.74 1.74 0 00-.63-.6 1.98 1.98 0 00-.98-.22m5.17 1.38c0-.24 0-.47-.03-.68a1.47 1.47 0 00-.11-.52c-.04-.1-.13-.16-.27-.2l-.55-.13v-.29l.38.03.44.01.4.01H248.3l.8-.02a58.79 58.79 0 011.73-.03 13.07 13.07 0 00-.26 1.41h-.29a3.44 3.44 0 00-.1-.4.94.94 0 00-.16-.33c-.08-.1-.22-.15-.43-.17a7.61 7.61 0 00-.58-.02h-.51l-.31.02-.42.03c-.04.11-.07.3-.08.54v1.54l.25.02.31.01h.34c.17 0 .35 0 .53-.02a.6.6 0 00.4-.17.97.97 0 00.16-.25c.05-.08.09-.18.14-.3h.28l-.04.54a6.12 6.12 0 000 .9l.03.52h-.28a3.12 3.12 0 00-.12-.33.83.83 0 00-.18-.26c-.08-.08-.21-.12-.4-.13a7.4 7.4 0 00-.52-.02h-.66l-.25.03v1.04c0 .24.01.47.03.67.01.22.05.39.11.52.04.1.16.17.34.21l.6.13v.28a18 18 0 00-.75-.03 26.82 26.82 0 00-1.6 0c-.24 0-.47.02-.69.03v-.28c.23-.04.4-.08.55-.13.14-.04.23-.11.27-.2a1.49 1.49 0 00.11-.53c.02-.2.03-.43.03-.67V61.3zm9.61-1.8v-.48l-.01-.51a4.8 4.8 0 00-.06-.45.85.85 0 00-.1-.3.7.7 0 00-.33-.21 7.14 7.14 0 00-.57-.17v-.3a31.53 31.53 0 001.63.06H258.23c.33-.02.67-.02 1.04-.03l1.11-.03h1.08c-.08.35-.14.7-.19 1.04a40.74 40.74 0 01-.12.79h-.3a2.3 2.3 0 01-.05-.26 1.98 1.98 0 00-.15-.58.58.58 0 00-.14-.21 1 1 0 00-.57-.18 12.24 12.24 0 00-.73-.02h-.32a4.95 4.95 0 00-.33 0l-.42.04-.63.05a2 2 0 00-.05.28 12.71 12.71 0 00-.05.98v1.83c.08.03.22.04.39.05l.54.01h.33a9.88 9.88 0 00.74-.04.77.77 0 00.47-.19.8.8 0 00.22-.36l.15-.5h.3a11.54 11.54 0 00-.07 1.37 11.87 11.87 0 00.07 1.37h-.3a12.62 12.62 0 01-.15-.52.75.75 0 00-.24-.38c-.1-.08-.24-.14-.45-.16a6.8 6.8 0 00-.74-.04h-.33a7.78 7.78 0 00-.93.06v2.06a7.5 7.5 0 00.07.96.85.85 0 00.1.3.39.39 0 00.16.12 2.34 2.34 0 00.63.19l.35.07v.3a19.16 19.16 0 00-.4-.02l-.5-.02a18.65 18.65 0 00-.98-.02 24 24 0 00-1.63.07v-.31c.22-.06.41-.11.57-.17a.68.68 0 00.34-.21.85.85 0 00.1-.3 4.79 4.79 0 00.05-.45l.01-.5V59.5zm7.04 2.4v-.5a11.1 11.1 0 00-.03-.53 8.35 8.35 0 00-.04-.46.94.94 0 00-.07-.3c-.04-.1-.15-.17-.33-.21a37.4 37.4 0 00-.6-.13v-.29l.74.04a28.75 28.75 0 001.66 0c.28 0 .53-.02.75-.04v.29a51.4 51.4 0 00-.6.13c-.18.04-.3.1-.33.2a.89.89 0 00-.07.3l-.05.47a12.65 12.65 0 00-.02 1.02v1.2a21.85 21.85 0 00.07 1.48.9.9 0 00.07.3c.04.1.15.17.33.2l.6.14v.28a16.54 16.54 0 00-.75-.03 34.24 34.24 0 00-1.66 0c-.28 0-.53.02-.74.03v-.28l.6-.13c.18-.04.29-.1.33-.2a.95.95 0 00.07-.3l.04-.47a9.84 9.84 0 00.03-.53v-1.69zm4.35 0v-.49a5.81 5.81 0 00-.07-.9 1.1 1.1 0 00-.08-.29.51.51 0 00-.15-.15 1.23 1.23 0 00-.24-.13 2.42 2.42 0 00-.28-.1 2.93 2.93 0 00-.26-.07v-.29a15.24 15.24 0 001.05.05h.28c.14-.01.28-.02.41-.05A36.53 36.53 0 00270 61.3l1.22 1.27.54.57.47.47h.05V61.3c0-.24 0-.47-.02-.68a1.51 1.51 0 00-.12-.52c-.04-.1-.15-.16-.33-.2a50.92 50.92 0 00-.6-.13v-.29l.55.04a19.24 19.24 0 001.42 0c.2 0 .37-.02.53-.04v.29l-.54.14c-.14.03-.23.1-.27.2a1.49 1.49 0 00-.12.51 9 9 0 00-.02.68v2.35a110.01 110.01 0 00.02 1.34l.01.5h-.28a171.3 171.3 0 00-.78-.88 38.38 38.38 0 00-.76-.83l-1.42-1.5-.38-.4a14.33 14.33 0 01-.33-.35l-.3-.34a29.76 29.76 0 01-.34-.37h-.05v2.86c0 .24.01.47.03.68.01.2.05.38.12.52.04.09.15.16.32.2l.6.13v.28a9.3 9.3 0 00-.58-.03 24.98 24.98 0 00-1.48 0 9.02 9.02 0 00-.56.03v-.28l.6-.13c.18-.04.3-.1.33-.2a1.49 1.49 0 00.12-.52c.02-.21.03-.44.03-.68v-1.79zm9.35.7a8.32 8.32 0 00-.32.01 2.17 2.17 0 00-.25.03v1.04a14.26 14.26 0 00.06 1.22c.13.03.3.05.53.06a14.3 14.3 0 001.28-.02c.24-.02.41-.07.52-.14.12-.07.23-.18.33-.33a4.42 4.42 0 00.36-.62h.3a13.4 13.4 0 00-.25 1.65 21.75 21.75 0 00-1.08-.04 30.04 30.04 0 00-.68-.01H275.31a17.3 17.3 0 00-.82.04v-.28l.54-.14c.13-.03.22-.1.27-.2.06-.13.1-.3.12-.51.02-.21.02-.44.02-.68V61.3c0-.24 0-.47-.02-.68a1.47 1.47 0 00-.12-.52c-.04-.1-.13-.16-.27-.2l-.54-.13v-.29l.38.03.43.02H277.06l.8-.02a58.37 58.37 0 011.74-.03 13.07 13.07 0 00-.27 1.41h-.28a5.69 5.69 0 00-.1-.41.88.88 0 00-.17-.32c-.08-.1-.22-.15-.43-.16a7.61 7.61 0 00-.58-.03h-.51l-.3.03-.43.02c-.04.11-.06.3-.07.54l-.01.74v.8l.25.03h.65c.18 0 .35 0 .53-.02a.6.6 0 00.4-.17c.07-.08.13-.16.17-.24l.13-.3h.29a8.83 8.83 0 00-.06 1.42c0 .14.02.31.05.53h-.29a3.21 3.21 0 00-.12-.33.83.83 0 00-.18-.26c-.08-.08-.2-.12-.4-.13a8.04 8.04 0 00-.52-.02h-.33zm12.3-.1a4.59 4.59 0 00-.45-.02h-1.88c-.12 0-.26 0-.42.02l-.56 1.56-.17.5a.88.88 0 00-.05.28c0 .05.03.1.08.14a.71.71 0 00.22.1 3.5 3.5 0 00.28.08l.3.07v.29a16.01 16.01 0 00-1.55-.07 7.72 7.72 0 00-1.11.07v-.29c.13-.01.25-.04.38-.07a.94.94 0 00.32-.14c.12-.08.24-.22.35-.41.11-.2.22-.43.32-.69l2.63-6.92h.3l2.8 7c.11.27.2.47.24.6.05.14.13.24.23.32.1.08.23.15.36.2l.4.11v.29a3.19 3.19 0 00-.24-.03l-.35-.02a10.38 10.38 0 00-.7-.02 20.94 20.94 0 00-1.73.07v-.29a4.34 4.34 0 00.55-.15.92.92 0 00.21-.12.2.2 0 00.09-.16.87.87 0 00-.08-.32l-.15-.38-.62-1.6zm-.92-.57a9.95 9.95 0 00.68-.04l-1.16-2.96h-.04l-1.09 2.97c.09.02.17.03.26.03h1.35zm9.1 2.07c.1.15.21.29.33.43.1.14.23.26.37.37a1.9 1.9 0 00.44.26c.16.07.33.1.52.1v.29l-.4.05a4.17 4.17 0 01-.47.02c-.18 0-.35-.02-.5-.06a1.41 1.41 0 01-.44-.2 2.26 2.26 0 01-.44-.4 5.65 5.65 0 01-.47-.6l-1.03-1.46h-.38a1.74 1.74 0 01-.28-.04v.92c0 .24 0 .47.02.68.02.2.06.38.12.52.04.1.15.16.33.2l.6.13v.28a37.31 37.31 0 00-.8-.03 28.22 28.22 0 00-1.54 0 18.7 18.7 0 00-.69.03v-.28l.54-.14c.14-.03.23-.1.27-.2a1.49 1.49 0 00.12-.51c.02-.21.03-.44.03-.68V61.3c0-.24-.01-.47-.03-.68a1.49 1.49 0 00-.12-.52c-.04-.1-.13-.16-.27-.2l-.54-.13v-.29a17.9 17.9 0 001.3.05c.24 0 .5-.01.76-.04a6.85 6.85 0 01.73-.04c.15 0 .34.01.59.05.24.03.49.1.73.2.23.11.44.27.62.47.17.2.26.48.26.83 0 .38-.1.72-.3 1-.2.3-.53.51-.95.65l.97 1.36zm-2.75-1.73c.1.03.2.06.28.06a3.36 3.36 0 00.66 0c.15-.03.3-.07.44-.15.14-.08.27-.2.37-.36.1-.17.16-.4.16-.7 0-.45-.1-.77-.3-.95-.21-.18-.5-.27-.88-.27-.12 0-.24.02-.35.06a.52.52 0 00-.25.14.46.46 0 00-.08.19 2.05 2.05 0 00-.04.28 4.8 4.8 0 00-.01.36v1.34zm6.9-.97a9.61 9.61 0 00-.07-1.27 2.7 2.7 0 00-.38-.02h-.37c-.1 0-.24 0-.4.03a.96.96 0 00-.43.16.72.72 0 00-.23.3 8.33 8.33 0 00-.2.5h-.31c.04-.23.07-.49.09-.76l.05-.78a32.4 32.4 0 001.81.07h1.86a25.14 25.14 0 001.96-.07l-.06.41a9.53 9.53 0 00-.06.36l-.05.36-.04.42h-.31a2.78 2.78 0 00-.1-.48c-.06-.17-.12-.3-.2-.36a.7.7 0 00-.32-.13 3.29 3.29 0 00-.54-.03h-.31c-.14 0-.25 0-.32.02l-.06.63a9.37 9.37 0 00-.02.64v2.38c0 .24.01.47.03.67.01.22.05.39.12.52.04.1.15.17.33.2.18.05.38.1.6.14v.28a18.17 18.17 0 00-.75-.03 33.69 33.69 0 00-1.65 0c-.29 0-.54.02-.75.03v-.28l.6-.13c.18-.04.29-.11.33-.2a1.49 1.49 0 00.12-.53c.02-.2.02-.43.02-.67V61.3zm4.2 4.06a14.44 14.44 0 00-.08-1l-.07-.63h.3a2.71 2.71 0 00.52.93c.11.13.28.23.5.31a2.33 2.33 0 001.2.09c.14-.03.27-.08.38-.14a.85.85 0 00.28-.27.73.73 0 00.11-.4c0-.18-.02-.33-.07-.45a.86.86 0 00-.22-.32 1.74 1.74 0 00-.35-.25 6.3 6.3 0 00-.5-.23l-.8-.34c-.43-.19-.74-.4-.92-.67a1.5 1.5 0 01-.28-.89 1.52 1.52 0 01.7-1.31c.2-.13.41-.23.65-.29.24-.06.47-.09.68-.09.36 0 .68.03.95.1l.84.19a6.89 6.89 0 00-.03 1.06l.02.37h-.31a4.27 4.27 0 00-.16-.5 1.18 1.18 0 00-.27-.4 1.05 1.05 0 00-.48-.27 2.26 2.26 0 00-.56-.07c-.14 0-.28.01-.41.04a.98.98 0 00-.35.14.8.8 0 00-.24.26.78.78 0 00-.1.4c0 .31.07.54.2.68.14.15.31.26.52.35l.81.33.65.3c.2.12.37.24.52.38.14.14.26.3.34.47.08.18.13.38.13.6 0 .34-.08.62-.24.84-.15.23-.34.4-.56.53-.22.14-.45.23-.7.28a3.27 3.27 0 01-.64.08 7.12 7.12 0 01-1.09-.09l-.45-.06a31.73 31.73 0 00-.43-.06" fill-opacity=".4" fill="#262626"/><g fill="#262626" opacity=".4"><path d="M0 37.63h52.19V0H0zm88.33 0h52.19V0H88.33z"/><path d="M52.14 45.55h36.28V7.83H52.14v37.72zm28.9-7.5l.32-14.36h1.28l.32 14.36h-1.93zm-4.55 0l.33-14.36h1.28l.32 14.36h-1.93zm-4.52 0l.32-14.36h1.28l.33 14.36h-1.94zm-4.54 0l.33-14.36h1.28l.32 14.36h-1.93zm-4.53 0l.32-14.36h1.29l.32 14.36H62.9zm-4.53 0l.33-14.36h1.28l.33 14.36h-1.94zM85.4 18.4l-.88 1.52-13.67-4.06-14.8 4.06-.88-1.51 15.69-3.79L85.4 18.4z"/></g></g></svg>